<?xml version="1.0" encoding="UTF-8"?>
<svg version="1.1" xmlns="http://www.w3.org/2000/svg" width="148" height="148">
<path d="M0 0 C48.84 0 97.68 0 148 0 C148 48.84 148 97.68 148 148 C99.16 148 50.32 148 0 148 C0 99.16 0 50.32 0 0 Z " fill="#150224" transform="translate(0,0)"/>
<path d="M0 0 C6.41718581 4.59849029 11.94286399 15.75899122 13.26977539 23.4609375 C13.47541044 25.37876844 13.67925549 27.29679113 13.8828125 29.21484375 C15.56296409 30.59803962 15.56296409 30.59803962 17.8828125 31.21484375 C18.6665625 31.85421875 19.4503125 32.49359375 20.2578125 33.15234375 C28.83615979 38.84293057 40.92467146 38.60497268 50.86572266 38.83666992 C55.88995918 38.9793186 60.11006089 39.61536172 64.8828125 41.21484375 C64.8828125 37.91484375 64.8828125 34.61484375 64.8828125 31.21484375 C65.5428125 31.21484375 66.2028125 31.21484375 66.8828125 31.21484375 C66.8828125 27.25484375 66.8828125 23.29484375 66.8828125 19.21484375 C67.5428125 19.21484375 68.2028125 19.21484375 68.8828125 19.21484375 C66.95889601 13.90072881 66.95889601 13.90072881 62.8828125 10.21484375 C63.2128125 8.23484375 63.5428125 6.25484375 63.8828125 4.21484375 C65.86027853 3.48404109 67.86353739 2.82062628 69.8828125 2.21484375 C70.8728125 2.70984375 70.8728125 2.70984375 71.8828125 3.21484375 C71.8828125 3.87484375 71.8828125 4.53484375 71.8828125 5.21484375 C72.6871875 5.48296875 73.4915625 5.75109375 74.3203125 6.02734375 C75.58875 6.61515625 75.58875 6.61515625 76.8828125 7.21484375 C77.3778125 8.69984375 77.3778125 8.69984375 77.8828125 10.21484375 C78.8728125 10.87484375 79.8628125 11.53484375 80.8828125 12.21484375 C81.099375 13.45234375 81.099375 13.45234375 81.3203125 14.71484375 C81.61193902 17.38306552 81.61193902 17.38306552 83.9453125 18.52734375 C84.5846875 18.75421875 85.2240625 18.98109375 85.8828125 19.21484375 C85.7178125 19.81296875 85.5528125 20.41109375 85.3828125 21.02734375 C84.7714001 23.32828711 84.7714001 23.32828711 84.8828125 26.21484375 C84.23842533 27.89025039 83.57034551 29.55667591 82.8828125 31.21484375 C82.52422734 32.54160883 82.1809549 33.87320296 81.8828125 35.21484375 C80.8928125 35.21484375 79.9028125 35.21484375 78.8828125 35.21484375 C79.2128125 36.20484375 79.5428125 37.19484375 79.8828125 38.21484375 C79.2228125 38.21484375 78.5628125 38.21484375 77.8828125 38.21484375 C77.5528125 39.53484375 77.2228125 40.85484375 76.8828125 42.21484375 C74.5728125 42.87484375 72.2628125 43.53484375 69.8828125 44.21484375 C70.346875 45.11203125 70.346875 45.11203125 70.8203125 46.02734375 C72.38033417 49.23915307 73.00323554 51.74185713 72.9453125 55.26953125 C72.93757813 56.04941406 72.92984375 56.82929687 72.921875 57.6328125 C72.89595751 59.26302281 72.86991704 60.89323117 72.84375 62.5234375 C72.74155239 68.43910791 72.74155239 68.43910791 73.8828125 74.21484375 C74.841875 74.67890625 74.841875 74.67890625 75.8203125 75.15234375 C77.8828125 76.21484375 77.8828125 76.21484375 79.1328125 79.33984375 C79.5040625 80.76296875 79.5040625 80.76296875 79.8828125 82.21484375 C81.5328125 82.54484375 83.1828125 82.87484375 84.8828125 83.21484375 C84.8828125 83.87484375 84.8828125 84.53484375 84.8828125 85.21484375 C86.5328125 85.87484375 88.1828125 86.53484375 89.8828125 87.21484375 C89.8828125 87.87484375 89.8828125 88.53484375 89.8828125 89.21484375 C90.5428125 89.21484375 91.2028125 89.21484375 91.8828125 89.21484375 C94.3519023 108.65892595 94.3519023 108.65892595 88.3828125 117.08984375 C86.33682597 119.40557478 85.34527972 120.13684555 82.265625 120.65625 C79.76695994 120.65271081 77.36114945 120.52341139 74.8828125 120.21484375 C74.8828125 119.55484375 74.8828125 118.89484375 74.8828125 118.21484375 C75.5428125 118.21484375 76.2028125 118.21484375 76.8828125 118.21484375 C76.3878125 117.71984375 75.8928125 117.22484375 75.3828125 116.71484375 C73.21303155 113.09854217 73.67392831 110.39252759 73.8828125 106.21484375 C73.2228125 106.21484375 72.5628125 106.21484375 71.8828125 106.21484375 C70.98826926 104.80421787 70.09433556 103.39320252 69.203125 101.98046875 C67.699777 99.97007438 66.05490153 98.51539102 64.1328125 96.90234375 C55.8324141 89.79213283 51.08959226 83.51838903 47.79296875 73.05859375 C47.16285075 70.34224457 47.16285075 70.34224457 45.8828125 69.21484375 C41.2912481 68.41131998 38.89669669 69.62839825 35.1953125 72.15234375 C34.44894531 72.69761719 33.70257813 73.24289063 32.93359375 73.8046875 C29.91108334 75.88302323 27.44565104 76.33937637 23.87109375 76.3125 C22.73510742 76.30766602 22.73510742 76.30766602 21.57617188 76.30273438 C20.39764648 76.29016602 20.39764648 76.29016602 19.1953125 76.27734375 C18.39802734 76.27283203 17.60074219 76.26832031 16.77929688 76.26367188 C14.81376993 76.25190225 12.84828165 76.23396723 10.8828125 76.21484375 C11.12729126 77.28835083 11.12729126 77.28835083 11.37670898 78.38354492 C11.87473321 81.16964572 11.996996 83.68946583 11.98046875 86.515625 C11.97724609 87.49208984 11.97402344 88.46855469 11.97070312 89.47460938 C11.95813477 90.98571289 11.95813477 90.98571289 11.9453125 92.52734375 C11.94080078 93.55408203 11.93628906 94.58082031 11.93164062 95.63867188 C11.91989434 98.16412257 11.90346815 100.6894528 11.8828125 103.21484375 C11.2228125 103.21484375 10.5628125 103.21484375 9.8828125 103.21484375 C9.975625 104.23578125 9.975625 104.23578125 10.0703125 105.27734375 C9.82412987 109.134205 8.52479088 111.72563969 6.8828125 115.21484375 C6.2228125 115.21484375 5.5628125 115.21484375 4.8828125 115.21484375 C4.8828125 115.87484375 4.8828125 116.53484375 4.8828125 117.21484375 C-2.17794276 120.53755211 -8.3894943 120.53290429 -16.1171875 120.21484375 C-16.4471875 119.22484375 -16.7771875 118.23484375 -17.1171875 117.21484375 C-16.1271875 116.71984375 -16.1271875 116.71984375 -15.1171875 116.21484375 C-14.61780488 113.8751437 -14.26377063 111.64678796 -13.9921875 109.27734375 C-13.90799561 108.57601318 -13.82380371 107.87468262 -13.73706055 107.15209961 C-13.12602548 101.52649108 -12.93538093 95.93376806 -12.9296875 90.27734375 C-12.928479 89.09700562 -12.928479 89.09700562 -12.92724609 87.89282227 C-12.63094318 84.25416123 -12.63094318 84.25416123 -14.1171875 81.21484375 C-14.18945252 79.36196873 -14.2009997 77.50650497 -14.1796875 75.65234375 C-14.17066406 74.64042969 -14.16164063 73.62851563 -14.15234375 72.5859375 C-14.14074219 71.80347656 -14.12914063 71.02101563 -14.1171875 70.21484375 C-15.6021875 69.71984375 -15.6021875 69.71984375 -17.1171875 69.21484375 C-22.57938391 61.72383153 -21.50024117 55.43680182 -20.2421875 46.58984375 C-19.67317074 43.09445508 -19.05725261 39.71762166 -17.9921875 36.33984375 C-17.01287154 32.84228673 -17.05735172 29.8306347 -17.1171875 26.21484375 C-18.13039063 26.27285156 -19.14359375 26.33085938 -20.1875 26.390625 C-32.38889835 26.88135488 -32.38889835 26.88135488 -36.0546875 23.90234375 C-38.1171875 21.21484375 -38.1171875 21.21484375 -38.1171875 18.21484375 C-37.26253906 17.93511719 -36.40789063 17.65539062 -35.52734375 17.3671875 C-29.41332411 15.53670139 -29.41332411 15.53670139 -25.09765625 11.32421875 C-24.77851455 9.19487269 -24.77851455 9.19487269 -25.1171875 6.21484375 C-24.1271875 6.21484375 -23.1371875 6.21484375 -22.1171875 6.21484375 C-22.0759375 5.61671875 -22.0346875 5.01859375 -21.9921875 4.40234375 C-21.1171875 2.21484375 -21.1171875 2.21484375 -18.8671875 0.46484375 C-12.80927565 -1.5544602 -6.11315922 -2.2670572 0 0 Z " fill="#FBFBFB" transform="translate(46.1171875,13.78515625)"/>
<path d="M0 0 C0 0.66 0 1.32 0 2 C0.804375 2.268125 1.60875 2.53625 2.4375 2.8125 C3.283125 3.204375 4.12875 3.59625 5 4 C5.33 4.99 5.66 5.98 6 7 C6.99 7.66 7.98 8.32 9 9 C9.144375 9.825 9.28875 10.65 9.4375 11.5 C9.72912652 14.16822177 9.72912652 14.16822177 12.0625 15.3125 C12.701875 15.539375 13.34125 15.76625 14 16 C13.835 16.598125 13.67 17.19625 13.5 17.8125 C12.8885876 20.11344336 12.8885876 20.11344336 13 23 C12.35561283 24.67540664 11.68753301 26.34183216 11 28 C10.64141484 29.32676508 10.2981424 30.65835921 10 32 C9.01 32 8.02 32 7 32 C7.33 32.99 7.66 33.98 8 35 C7.34 35 6.68 35 6 35 C5.67 36.32 5.34 37.64 5 39 C3.88625 39.28875 2.7725 39.5775 1.625 39.875 C-2.00291092 40.69241329 -2.00291092 40.69241329 -4 43 C-4.33 42.34 -4.66 41.68 -5 41 C-7.02463255 40.34786708 -7.02463255 40.34786708 -9 40 C-8.67 39.34 -8.34 38.68 -8 38 C-7.67 38 -7.34 38 -7 38 C-7 34.7 -7 31.4 -7 28 C-6.34 28 -5.68 28 -5 28 C-5 24.04 -5 20.08 -5 16 C-4.34 16 -3.68 16 -3 16 C-4.92391649 10.68588506 -4.92391649 10.68588506 -9 7 C-8.75 4.125 -8.75 4.125 -8 1 C-5.16896222 -1.24530582 -3.33143942 -1.18979979 0 0 Z " fill="#F7F6F7" transform="translate(118,17)"/>
<path d="M0 0 C0 0.66 0 1.32 0 2 C2.475 2.99 2.475 2.99 5 4 C4.34 5.32 3.68 6.64 3 8 C3 7.34 3 6.68 3 6 C1.68 5.67 0.36 5.34 -1 5 C-1.12375 5.5775 -1.2475 6.155 -1.375 6.75 C-2.00648824 9.02335767 -2.88858191 10.9253529 -4 13 C-4.268125 12.38125 -4.53625 11.7625 -4.8125 11.125 C-5.95556848 8.7004767 -5.95556848 8.7004767 -9 7 C-8.75 4.125 -8.75 4.125 -8 1 C-5.16896222 -1.24530582 -3.33143942 -1.18979979 0 0 Z " fill="#E7E4E8" transform="translate(118,17)"/>
<path d="M0 0 C5.61 0 11.22 0 17 0 C17 0.33 17 0.66 17 1 C16.14535156 1.04898438 15.29070312 1.09796875 14.41015625 1.1484375 C13.30542969 1.22320312 12.20070313 1.29796875 11.0625 1.375 C9.96035156 1.44460937 8.85820313 1.51421875 7.72265625 1.5859375 C6.37494141 1.79089844 6.37494141 1.79089844 5 2 C4.67 2.66 4.34 3.32 4 4 C3.34 4 2.68 4 2 4 C2 8.29 2 12.58 2 17 C1.67 17 1.34 17 1 17 C0.67 11.39 0.34 5.78 0 0 Z " fill="#3C2F47" transform="translate(57,90)"/>
<path d="M0 0 C2.8125 -0.25 2.8125 -0.25 6 0 C7.9375 1.8125 7.9375 1.8125 9 4 C8.67 4.99 8.34 5.98 8 7 C6.35 6.67 4.7 6.34 3 6 C3 5.34 3 4.68 3 4 C2.34 4 1.68 4 1 4 C0.67 2.68 0.34 1.36 0 0 Z " fill="#291B37" transform="translate(86,82)"/>
<path d="M0 0 C1.1446875 0.2784375 1.1446875 0.2784375 2.3125 0.5625 C5.08967375 1.22819173 5.08967375 1.22819173 8 0 C8.33 1.98 8.66 3.96 9 6 C3.06 4.515 3.06 4.515 -3 3 C-2.01 2.67 -1.02 2.34 0 2 C0 1.34 0 0.68 0 0 Z " fill="#2A1C35" transform="translate(103,50)"/>
<path d="M0 0 C0.99 0 1.98 0 3 0 C4.25664978 2.90600261 5 4.79604584 5 8 C3.5 9.6875 3.5 9.6875 2 11 C0 10 0 10 -1 8 C-0.67 7.195625 -0.34 6.39125 0 5.5625 C1.33657887 2.94394094 1.33657887 2.94394094 0 0 Z " fill="#21102C" transform="translate(130,31)"/>
<path d="M0 0 C0.99 0.33 1.98 0.66 3 1 C2.01 1 1.02 1 0 1 C0 0.67 0 0.34 0 0 Z M-3 1 C-1.68 1.33 -0.36 1.66 1 2 C0.67 5.3 0.34 8.6 0 12 C-0.99 12.33 -1.98 12.66 -3 13 C-3 9.04 -3 5.08 -3 1 Z " fill="#261731" transform="translate(141,102)"/>
<path d="M0 0 C0.33 0.66 0.66 1.32 1 2 C1.66 2.33 2.32 2.66 3 3 C3.75 4.9375 3.75 4.9375 4 7 C3.34 7.66 2.68 8.32 2 9 C1.60235737 10.98821313 1.26224651 12.98944339 1 15 C0.67 15 0.34 15 0 15 C0 10.05 0 5.1 0 0 Z " fill="#EEEAEF" transform="translate(33,109)"/>
<path d="M0 0 C-1.65 1.65 -3.3 3.3 -5 5 C-5.99 4.34 -6.98 3.68 -8 3 C-7.67 2.01 -7.34 1.02 -7 0 C-2.25 -1.125 -2.25 -1.125 0 0 Z " fill="#291C35" transform="translate(123,57)"/>
<path d="M0 0 C0.66 0.33 1.32 0.66 2 1 C1.01 2.32 0.02 3.64 -1 5 C0.32 5.33 1.64 5.66 3 6 C2.34 6.66 1.68 7.32 1 8 C0.34 7.67 -0.32 7.34 -1 7 C-1 7.66 -1 8.32 -1 9 C-1.66 8.67 -2.32 8.34 -3 8 C-2.25 2.25 -2.25 2.25 0 0 Z " fill="#261834" transform="translate(139,120)"/>
<path d="M0 0 C0.66 0.33 1.32 0.66 2 1 C0.02 3.97 0.02 3.97 -2 7 C-5.3 6.67 -8.6 6.34 -12 6 C-12 5.67 -12 5.34 -12 5 C-9.03 5 -6.06 5 -3 5 C-2.34 3.68 -1.68 2.36 -1 1 C-0.67 0.67 -0.34 0.34 0 0 Z " fill="#53495B" transform="translate(134,129)"/>
<path d="M0 0 C0.99 0 1.98 0 3 0 C3.80967438 2.91482778 4.21845993 4.46113217 3.0625 7.3125 C2.5365625 8.1478125 2.5365625 8.1478125 2 9 C-0.29013653 5.5647952 -0.17842973 4.014669 0 0 Z " fill="#231432" transform="translate(124,88)"/>
<path d="M0 0 C0.99 0 1.98 0 3 0 C3 0.66 3 1.32 3 2 C3.99 2.33 4.98 2.66 6 3 C5.01 4.32 4.02 5.64 3 7 C3 6.01 3 5.02 3 4 C0.525 3.01 0.525 3.01 -2 2 C-1.34 1.34 -0.68 0.68 0 0 Z " fill="#23182F" transform="translate(120,17)"/>
<path d="M0 0 C2.00720923 0.28674418 4.0085944 0.61866701 6 1 C3.38058783 2.74627478 1.96175123 3.38722388 -1 4 C-1 1 -1 1 0 0 Z " fill="#22102C" transform="translate(14,26)"/>
<path d="M0 0 C0 1.98 0 3.96 0 6 C-0.99 6 -1.98 6 -3 6 C-3 4.35 -3 2.7 -3 1 C-1 0 -1 0 0 0 Z " fill="#21122F" transform="translate(32,124)"/>
<path d="M0 0 C0.99 0.33 1.98 0.66 3 1 C2.67 1.99 2.34 2.98 2 4 C1.01 4 0.02 4 -1 4 C-1.33 4.99 -1.66 5.98 -2 7 C-2.125 4.625 -2.125 4.625 -2 2 C-1.34 1.34 -0.68 0.68 0 0 Z " fill="#1B0C23" transform="translate(22,16)"/>
</svg>
