<svg width="309" height="129" viewBox="0 0 309 129" fill="none" xmlns="http://www.w3.org/2000/svg">
<path d="M275.174 77.9307V51.0702H293.151C295.774 51.0702 297.884 51.1868 299.481 51.4199C301.09 51.6531 302.308 52.0553 303.136 52.6266C303.964 53.1978 304.523 53.9789 304.815 54.9699C305.106 55.9608 305.252 57.2141 305.252 58.7296V59.4291C305.252 61.3294 304.914 62.775 304.238 63.766C303.573 64.7569 302.442 65.3807 300.845 65.6371C302.442 65.8936 303.573 66.5057 304.238 67.4733C304.914 68.4409 305.252 69.7991 305.252 71.5479V77.9307H301.894V72.0725C301.894 71.0349 301.824 70.1897 301.685 69.5368C301.556 68.8723 301.218 68.3652 300.67 68.0154C300.134 67.654 299.277 67.4092 298.1 67.2809C296.922 67.141 295.29 67.0711 293.203 67.0711H278.531V77.9307H275.174ZM301.894 58.7296C301.894 57.6221 301.79 56.7477 301.58 56.1065C301.37 55.4653 300.95 54.9932 300.321 54.6901C299.691 54.387 298.753 54.1946 297.505 54.113C296.258 54.0197 294.591 53.9731 292.504 53.9731H278.531V64.1682H293.378C295.372 64.1682 296.94 64.1041 298.082 63.9758C299.236 63.8359 300.082 63.5969 300.618 63.2589C301.166 62.9208 301.516 62.4428 301.667 61.8249C301.819 61.207 301.894 60.4084 301.894 59.4291V58.7296Z" fill="black"/>
<path d="M234.813 77.9307L250.482 51.0702H254.958L270.627 77.9307H266.71L263.352 71.7752H242.088L238.73 77.9307H234.813ZM243.767 68.9772H261.674L252.72 53.3086L243.767 68.9772Z" fill="black"/>
<path d="M207.952 77.9307V51.0702H211.31V75.1328H232.574V77.9307H207.952Z" fill="black"/>
<path d="M182.893 78.4903C180.27 78.4903 178.113 78.3096 176.423 77.9482C174.732 77.5985 173.409 76.9456 172.453 75.9896C171.509 75.0337 170.844 73.658 170.46 71.8626C170.086 70.0673 169.9 67.7298 169.9 64.8502V51.0702H173.257V64.8502C173.257 66.8321 173.327 68.4759 173.467 69.7816C173.607 71.0874 173.87 72.1308 174.254 72.9119C174.639 73.693 175.187 74.2759 175.898 74.6606C176.621 75.0453 177.554 75.296 178.696 75.4126C179.839 75.5291 181.238 75.5874 182.893 75.5874H189.223C190.891 75.5874 192.29 75.5291 193.42 75.4126C194.563 75.296 195.49 75.0453 196.201 74.6606C196.924 74.2759 197.477 73.693 197.862 72.9119C198.247 72.1308 198.509 71.0874 198.649 69.7816C198.789 68.4759 198.859 66.8321 198.859 64.8502V51.0702H202.216V64.8502C202.216 67.7298 202.024 70.0673 201.639 71.8626C201.266 73.658 200.602 75.0337 199.646 75.9896C198.702 76.9456 197.384 77.5985 195.694 77.9482C194.003 78.3096 191.847 78.4903 189.223 78.4903H182.893Z" fill="black"/>
<path d="M132.232 64.8502V64.1507C132.232 61.7725 132.349 59.7789 132.582 58.1701C132.815 56.5496 133.218 55.2322 133.789 54.2179C134.36 53.2037 135.135 52.4284 136.115 51.8921C137.106 51.3558 138.347 50.9944 139.839 50.8079C141.332 50.6097 143.127 50.5106 145.226 50.5106H152.273C154.674 50.5106 156.697 50.6272 158.341 50.8604C159.996 51.0819 161.326 51.5307 162.328 52.2069C163.342 52.8714 164.077 53.8565 164.532 55.1622C164.986 56.4563 165.214 58.1759 165.214 60.321H161.856C161.856 58.6306 161.704 57.319 161.401 56.3864C161.098 55.442 160.585 54.76 159.862 54.3403C159.151 53.9206 158.178 53.6642 156.942 53.5709C155.706 53.466 154.15 53.4135 152.273 53.4135H145.226C143.558 53.4135 142.154 53.466 141.011 53.5709C139.869 53.6642 138.936 53.8915 138.213 54.2529C137.502 54.6027 136.954 55.1622 136.569 55.9317C136.196 56.7011 135.94 57.7504 135.8 59.0794C135.66 60.4084 135.59 62.0989 135.59 64.1507V64.8502C135.59 66.8321 135.66 68.4759 135.8 69.7817C135.94 71.0874 136.196 72.1308 136.569 72.9119C136.954 73.693 137.502 74.2759 138.213 74.6606C138.936 75.0453 139.869 75.296 141.011 75.4126C142.154 75.5292 143.558 75.5875 145.226 75.5875H152.273C154.15 75.5875 155.706 75.5466 156.942 75.465C158.178 75.3834 159.151 75.1444 159.862 74.7481C160.585 74.3517 161.098 73.693 161.401 72.772C161.704 71.8393 161.856 70.5336 161.856 68.8548H165.214C165.214 70.9999 164.986 72.7137 164.532 73.9961C164.077 75.2785 163.342 76.2461 162.328 76.899C161.326 77.5402 159.996 77.9657 158.341 78.1756C156.697 78.3854 154.674 78.4903 152.273 78.4903H145.226C142.602 78.4903 140.446 78.3096 138.755 77.9482C137.065 77.5985 135.742 76.9456 134.786 75.9897C133.841 75.0337 133.177 73.658 132.792 71.8626C132.419 70.0673 132.232 67.7298 132.232 64.8502Z" fill="black"/>
<path d="M96.9077 77.9307V51.0702H114.885C117.508 51.0702 119.618 51.1868 121.215 51.4199C122.824 51.6531 124.042 52.0553 124.87 52.6266C125.698 53.1978 126.257 53.9789 126.549 54.9699C126.84 55.9608 126.986 57.2141 126.986 58.7296V59.4291C126.986 61.3294 126.648 62.775 125.972 63.766C125.307 64.7569 124.176 65.3807 122.579 65.6371C124.176 65.8936 125.307 66.5057 125.972 67.4733C126.648 68.4409 126.986 69.7991 126.986 71.5479V77.9307H123.628V72.0725C123.628 71.0349 123.558 70.1897 123.419 69.5368C123.29 68.8723 122.952 68.3652 122.404 68.0154C121.868 67.654 121.011 67.4092 119.834 67.2809C118.656 67.141 117.024 67.0711 114.937 67.0711H100.265V77.9307H96.9077ZM123.628 58.7296C123.628 57.6221 123.523 56.7477 123.314 56.1065C123.104 55.4653 122.684 54.9932 122.054 54.6901C121.425 54.387 120.486 54.1946 119.239 54.113C117.992 54.0197 116.324 53.9731 114.238 53.9731H100.265V64.1682H115.112C117.106 64.1682 118.674 64.1041 119.816 63.9758C120.97 63.8359 121.815 63.5969 122.352 63.2589C122.9 62.9208 123.249 62.4428 123.401 61.8249C123.553 61.207 123.628 60.4084 123.628 59.4291V58.7296Z" fill="black"/>
<path d="M86.7651 77.9307V51.0702H90.1227V77.9307H86.7651Z" fill="black"/>
<path d="M48.1182 64.8502V64.1507C48.1182 61.7725 48.2347 59.7789 48.4679 58.1701C48.7011 56.5496 49.1033 55.2322 49.6745 54.2179C50.2458 53.2037 51.0211 52.4284 52.0004 51.8921C52.9913 51.3558 54.2329 50.9944 55.7252 50.8079C57.2174 50.6097 59.0128 50.5106 61.1112 50.5106H68.1586C70.5602 50.5106 72.5829 50.6272 74.2267 50.8604C75.8822 51.0819 77.2113 51.5307 78.2139 52.2069C79.2281 52.8714 79.9626 53.8565 80.4173 55.1622C80.8719 56.4563 81.0993 58.1759 81.0993 60.321H77.7417C77.7417 58.6306 77.5901 57.319 77.287 56.3864C76.9839 55.442 76.471 54.76 75.7481 54.3403C75.037 53.9206 74.0635 53.6642 72.8278 53.5709C71.592 53.466 70.0356 53.4135 68.1586 53.4135H61.1112C59.4441 53.4135 58.0393 53.466 56.8968 53.5709C55.7543 53.6642 54.8216 53.8915 54.0988 54.2529C53.3877 54.6027 52.8397 55.1622 52.455 55.9317C52.082 56.7011 51.8255 57.7504 51.6856 59.0794C51.5457 60.4084 51.4757 62.0989 51.4757 64.1507V64.8502C51.4757 66.8321 51.5457 68.4759 51.6856 69.7817C51.8255 71.0874 52.082 72.1308 52.455 72.9119C52.8397 73.693 53.3877 74.2759 54.0988 74.6606C54.8216 75.0453 55.7543 75.296 56.8968 75.4126C58.0393 75.5292 59.4441 75.5875 61.1112 75.5875H68.1586C70.0356 75.5875 71.592 75.5466 72.8278 75.465C74.0635 75.3834 75.037 75.1444 75.7481 74.7481C76.471 74.3517 76.9839 73.693 77.287 72.772C77.5901 71.8393 77.7417 70.5336 77.7417 68.8548H81.0993C81.0993 70.9999 80.8719 72.7137 80.4173 73.9961C79.9626 75.2785 79.2281 76.2461 78.2139 76.899C77.2113 77.5402 75.8822 77.9657 74.2267 78.1756C72.5829 78.3854 70.5602 78.4903 68.1586 78.4903H61.1112C58.4882 78.4903 56.3314 78.3096 54.6409 77.9482C52.9505 77.5985 51.6273 76.9456 50.6713 75.9897C49.727 75.0337 49.0625 73.658 48.6778 71.8626C48.3047 70.0673 48.1182 67.7298 48.1182 64.8502Z" fill="black"/>
<path fill-rule="evenodd" clip-rule="evenodd" d="M98.1419 22.8662H113.51C118.388 28.494 122.236 34.8778 124.86 41.8639H101.466C100.087 39.6065 98.8418 38.0816 98.1419 37.4838V22.8662ZM89.4671 41.8639C83.2868 35.1446 74.5207 31.4672 65.2795 31.4359V21.78C79.1384 22.2275 87.9729 27.9343 94.8396 34.0259V19.3919H110.432C98.8324 7.67539 82.6591 0.344727 64.8701 0.344727C29.5241 0.344727 0.870117 28.9987 0.870117 64.3447C0.870117 99.6907 29.5241 128.345 64.8701 128.345C92.3052 128.345 115.709 111.082 124.81 86.8256H114.466C105.874 105.976 86.2686 118.955 64.7337 118.645V107.876C82.6383 107.18 95.45 98.624 102.394 86.8256H87.4752C81.7399 92.5781 73.7913 96.14 65.0066 96.14C47.5205 96.14 33.3477 82.0273 33.3477 64.6177C33.3477 47.208 47.5205 33.0953 65.0066 33.0953C73.5101 33.0953 81.23 36.4328 86.9175 41.8639H89.4671ZM65.2795 10.7157C37.1686 10.4428 10.9682 33.0953 10.9764 64.3447L21.6121 64.4812C21.885 40.7371 41.2624 21.3597 65.2795 21.4988V10.7157ZM31.9831 64.2083H21.885C22.7038 93.1379 45.0833 107.057 64.8701 107.595V97.7748C38.8062 96.9588 31.4373 74.5793 31.9831 64.2083Z" fill="black"/>
</svg>
