<svg width="309" height="129" viewBox="0 0 309 129" fill="none" xmlns="http://www.w3.org/2000/svg">
<path d="M275.174 77.9306V51.0701H293.151C295.774 51.0701 297.884 51.1867 299.481 51.4198C301.09 51.653 302.308 52.0552 303.136 52.6264C303.964 53.1977 304.523 53.9788 304.815 54.9697C305.106 55.9607 305.252 57.2139 305.252 58.7295V59.429C305.252 61.3293 304.914 62.7749 304.238 63.7659C303.573 64.7568 302.442 65.3805 300.845 65.637C302.442 65.8935 303.573 66.5056 304.238 67.4732C304.914 68.4408 305.252 69.799 305.252 71.5477V77.9306H301.894V72.0723C301.894 71.0348 301.824 70.1895 301.685 69.5367C301.556 68.8722 301.218 68.365 300.67 68.0153C300.134 67.6539 299.277 67.4091 298.1 67.2808C296.922 67.1409 295.29 67.071 293.203 67.071H278.531V77.9306H275.174ZM301.894 58.7295C301.894 57.622 301.79 56.7476 301.58 56.1064C301.37 55.4652 300.95 54.9931 300.321 54.6899C299.691 54.3868 298.753 54.1945 297.505 54.1129C296.258 54.0196 294.591 53.973 292.504 53.973H278.531V64.1681H293.378C295.372 64.1681 296.94 64.104 298.082 63.9757C299.236 63.8358 300.082 63.5968 300.618 63.2587C301.166 62.9206 301.516 62.4427 301.667 61.8248C301.819 61.2069 301.894 60.4083 301.894 59.429V58.7295Z" fill="#FFFDFE"/>
<path d="M234.813 77.9306L250.482 51.0701H254.958L270.627 77.9306H266.71L263.352 71.7751H242.088L238.73 77.9306H234.813ZM243.767 68.9771H261.674L252.72 53.3084L243.767 68.9771Z" fill="#FFFDFE"/>
<path d="M207.952 77.9306V51.0701H211.31V75.1326H232.574V77.9306H207.952Z" fill="#FFFDFE"/>
<path d="M182.893 78.4902C180.27 78.4902 178.113 78.3095 176.423 77.9481C174.732 77.5983 173.409 76.9455 172.453 75.9895C171.509 75.0335 170.844 73.6579 170.46 71.8625C170.086 70.0671 169.9 67.7297 169.9 64.8501V51.0701H173.257V64.8501C173.257 66.832 173.327 68.4758 173.467 69.7815C173.607 71.0872 173.87 72.1306 174.254 72.9117C174.639 73.6928 175.187 74.2758 175.898 74.6605C176.621 75.0452 177.554 75.2958 178.696 75.4124C179.839 75.529 181.238 75.5873 182.893 75.5873H189.223C190.891 75.5873 192.29 75.529 193.42 75.4124C194.563 75.2958 195.49 75.0452 196.201 74.6605C196.924 74.2758 197.477 73.6928 197.862 72.9117C198.247 72.1306 198.509 71.0872 198.649 69.7815C198.789 68.4758 198.859 66.832 198.859 64.8501V51.0701H202.216V64.8501C202.216 67.7297 202.024 70.0671 201.639 71.8625C201.266 73.6579 200.602 75.0335 199.646 75.9895C198.702 76.9455 197.384 77.5983 195.694 77.9481C194.003 78.3095 191.847 78.4902 189.223 78.4902H182.893Z" fill="#FFFDFE"/>
<path d="M132.232 64.8501V64.1506C132.232 61.7723 132.349 59.7788 132.582 58.1699C132.815 56.5495 133.218 55.2321 133.789 54.2178C134.36 53.2035 135.135 52.4283 136.115 51.892C137.106 51.3557 138.347 50.9943 139.839 50.8078C141.332 50.6096 143.127 50.5105 145.226 50.5105H152.273C154.674 50.5105 156.697 50.6271 158.341 50.8602C159.996 51.0818 161.326 51.5306 162.328 52.2068C163.342 52.8713 164.077 53.8564 164.532 55.1621C164.986 56.4562 165.214 58.1758 165.214 60.3209H161.856C161.856 58.6304 161.704 57.3189 161.401 56.3862C161.098 55.4419 160.585 54.7599 159.862 54.3402C159.151 53.9205 158.178 53.664 156.942 53.5708C155.706 53.4659 154.15 53.4134 152.273 53.4134H145.226C143.558 53.4134 142.154 53.4659 141.011 53.5708C139.869 53.664 138.936 53.8914 138.213 54.2528C137.502 54.6025 136.954 55.1621 136.569 55.9316C136.196 56.701 135.94 57.7503 135.8 59.0793C135.66 60.4083 135.59 62.0988 135.59 64.1506V64.8501C135.59 66.832 135.66 68.4758 135.8 69.7815C135.94 71.0873 136.196 72.1307 136.569 72.9118C136.954 73.6929 137.502 74.2758 138.213 74.6605C138.936 75.0452 139.869 75.2959 141.011 75.4125C142.154 75.529 143.558 75.5873 145.226 75.5873H152.273C154.15 75.5873 155.706 75.5465 156.942 75.4649C158.178 75.3833 159.151 75.1443 159.862 74.7479C160.585 74.3516 161.098 73.6929 161.401 72.7719C161.704 71.8392 161.856 70.5335 161.856 68.8547H165.214C165.214 70.9998 164.986 72.7136 164.532 73.996C164.077 75.2784 163.342 76.246 162.328 76.8989C161.326 77.5401 159.996 77.9656 158.341 78.1755C156.697 78.3853 154.674 78.4902 152.273 78.4902H145.226C142.602 78.4902 140.446 78.3095 138.755 77.9481C137.065 77.5984 135.742 76.9455 134.786 75.9895C133.841 75.0336 133.177 73.6579 132.792 71.8625C132.419 70.0672 132.232 67.7297 132.232 64.8501Z" fill="#FFFDFE"/>
<path d="M96.9077 77.9306V51.0701H114.885C117.508 51.0701 119.618 51.1867 121.215 51.4198C122.824 51.653 124.042 52.0552 124.87 52.6264C125.698 53.1977 126.257 53.9788 126.549 54.9697C126.84 55.9607 126.986 57.2139 126.986 58.7295V59.429C126.986 61.3293 126.648 62.7749 125.972 63.7659C125.307 64.7568 124.176 65.3805 122.579 65.637C124.176 65.8935 125.307 66.5056 125.972 67.4732C126.648 68.4408 126.986 69.799 126.986 71.5477V77.9306H123.628V72.0723C123.628 71.0348 123.558 70.1895 123.419 69.5367C123.29 68.8722 122.952 68.365 122.404 68.0153C121.868 67.6539 121.011 67.4091 119.834 67.2808C118.656 67.1409 117.024 67.071 114.937 67.071H100.265V77.9306H96.9077ZM123.628 58.7295C123.628 57.622 123.523 56.7476 123.314 56.1064C123.104 55.4652 122.684 54.9931 122.054 54.6899C121.425 54.3868 120.486 54.1945 119.239 54.1129C117.992 54.0196 116.324 53.973 114.238 53.973H100.265V64.1681H115.112C117.106 64.1681 118.674 64.104 119.816 63.9757C120.97 63.8358 121.815 63.5968 122.352 63.2587C122.9 62.9206 123.249 62.4427 123.401 61.8248C123.553 61.2069 123.628 60.4083 123.628 59.429V58.7295Z" fill="#FFFDFE"/>
<path d="M86.7651 77.9306V51.0701H90.1227V77.9306H86.7651Z" fill="#FFFDFE"/>
<path d="M48.1182 64.8501V64.1506C48.1182 61.7723 48.2347 59.7788 48.4679 58.1699C48.7011 56.5495 49.1033 55.2321 49.6745 54.2178C50.2458 53.2035 51.0211 52.4283 52.0004 51.892C52.9913 51.3557 54.2329 50.9943 55.7252 50.8078C57.2174 50.6096 59.0128 50.5105 61.1112 50.5105H68.1586C70.5602 50.5105 72.5829 50.6271 74.2267 50.8602C75.8822 51.0818 77.2113 51.5306 78.2139 52.2068C79.2281 52.8713 79.9626 53.8564 80.4173 55.1621C80.8719 56.4562 81.0993 58.1758 81.0993 60.3209H77.7417C77.7417 58.6304 77.5901 57.3189 77.287 56.3862C76.9839 55.4419 76.471 54.7599 75.7481 54.3402C75.037 53.9205 74.0635 53.664 72.8278 53.5708C71.592 53.4659 70.0356 53.4134 68.1586 53.4134H61.1112C59.4441 53.4134 58.0393 53.4659 56.8968 53.5708C55.7543 53.664 54.8216 53.8914 54.0988 54.2528C53.3877 54.6025 52.8397 55.1621 52.455 55.9316C52.082 56.701 51.8255 57.7503 51.6856 59.0793C51.5457 60.4083 51.4757 62.0988 51.4757 64.1506V64.8501C51.4757 66.832 51.5457 68.4758 51.6856 69.7815C51.8255 71.0873 52.082 72.1307 52.455 72.9118C52.8397 73.6929 53.3877 74.2758 54.0988 74.6605C54.8216 75.0452 55.7543 75.2959 56.8968 75.4125C58.0393 75.529 59.4441 75.5873 61.1112 75.5873H68.1586C70.0356 75.5873 71.592 75.5465 72.8278 75.4649C74.0635 75.3833 75.037 75.1443 75.7481 74.7479C76.471 74.3516 76.9839 73.6929 77.287 72.7719C77.5901 71.8392 77.7417 70.5335 77.7417 68.8547H81.0993C81.0993 70.9998 80.8719 72.7136 80.4173 73.996C79.9626 75.2784 79.2281 76.246 78.2139 76.8989C77.2113 77.5401 75.8822 77.9656 74.2267 78.1755C72.5829 78.3853 70.5602 78.4902 68.1586 78.4902H61.1112C58.4882 78.4902 56.3314 78.3095 54.6409 77.9481C52.9505 77.5984 51.6273 76.9455 50.6713 75.9895C49.727 75.0336 49.0625 73.6579 48.6778 71.8625C48.3047 70.0672 48.1182 67.7297 48.1182 64.8501Z" fill="#FFFDFE"/>
<path fill-rule="evenodd" clip-rule="evenodd" d="M98.1419 22.8662H113.51C118.388 28.494 122.236 34.8778 124.86 41.8639H101.466C100.087 39.6065 98.8418 38.0816 98.1419 37.4838V22.8662ZM89.4671 41.8639C83.2868 35.1446 74.5207 31.4672 65.2795 31.4359V21.78C79.1384 22.2275 87.9729 27.9343 94.8396 34.0259V19.3919H110.432C98.8324 7.67539 82.6591 0.344727 64.8701 0.344727C29.5241 0.344727 0.870117 28.9987 0.870117 64.3447C0.870117 99.6907 29.5241 128.345 64.8701 128.345C92.3052 128.345 115.709 111.082 124.81 86.8256H114.466C105.874 105.976 86.2686 118.955 64.7337 118.645V107.876C82.6383 107.18 95.45 98.624 102.394 86.8256H87.4752C81.7399 92.5781 73.7913 96.14 65.0066 96.14C47.5205 96.14 33.3477 82.0273 33.3477 64.6177C33.3477 47.208 47.5205 33.0953 65.0066 33.0953C73.5101 33.0953 81.23 36.4328 86.9175 41.8639H89.4671ZM65.2795 10.7157C37.1686 10.4428 10.9682 33.0953 10.9764 64.3447L21.6121 64.4812C21.885 40.7371 41.2624 21.3597 65.2795 21.4988V10.7157ZM31.9831 64.2083H21.885C22.7038 93.1379 45.0833 107.057 64.8701 107.595V97.7748C38.8062 96.9588 31.4373 74.5793 31.9831 64.2083Z" fill="#09BE8B"/>
</svg>
