<svg width="128" height="128" viewBox="0 0 128 128" fill="none" xmlns="http://www.w3.org/2000/svg">
<rect width="128" height="128" rx="64" fill="#040C4A"/>
<path d="M45.125 64.4053V63.5947C45.125 60.8384 45.2601 58.528 45.5303 56.6635C45.8006 54.7854 46.2667 53.2586 46.9287 52.0832C47.5908 50.9077 48.4893 50.0092 49.6242 49.3877C50.7727 48.7662 52.2116 48.3473 53.941 48.1312C55.6705 47.9015 57.7512 47.7866 60.1832 47.7866H68.3507C71.134 47.7866 73.0051 47.8609 74.9102 48.1312C76.8288 48.3879 78.3691 48.908 79.531 49.6917C80.7065 50.4618 81.5577 51.6035 82.0846 53.1168C82.6116 54.6165 82.875 55.8162 82.875 58.3023H78.9838C78.9838 56.3432 78.8082 55.6163 78.4569 54.5354C78.1056 53.441 77.5111 52.6506 76.6734 52.1642C75.8492 51.6778 74.721 51.3806 73.2889 51.2725C71.8567 51.1509 70.526 51.1509 68.3507 51.1509H60.1832C58.2511 51.1509 56.623 51.2117 55.2989 51.3333C53.9748 51.4414 52.8939 51.7049 52.0562 52.1237C51.232 52.529 50.597 53.1776 50.1512 54.0693C49.7188 54.961 49.4215 56.1771 49.2594 57.7173C49.0973 59.2576 49.0162 61.2167 49.0162 63.5947V64.4053C49.0162 66.7022 49.0973 68.6073 49.2594 70.1206C49.4215 71.6338 49.7188 72.8431 50.1512 73.7483C50.597 74.6536 51.232 75.3291 52.0562 75.775C52.8939 76.2209 53.9748 76.5114 55.2989 76.6465C56.623 76.7816 58.2511 76.8491 60.1832 76.8491H68.3507C70.526 76.8491 71.8567 76.741 73.2889 76.6465C74.721 76.5519 75.8492 76.2749 76.6734 75.8155C77.5111 75.3561 78.1056 74.5928 78.4569 73.5254C78.8082 72.4445 78.9838 71.166 78.9838 69.2204H82.875C82.875 71.7064 82.6116 73.4578 82.0846 74.9441C81.5577 76.4303 80.7065 77.5517 79.531 78.3083C78.3691 79.0514 76.8288 79.5446 74.9102 79.7878C73.0051 80.031 71.134 80.2134 68.3507 80.2134H60.1832C57.1432 80.2134 54.6436 80.004 52.6845 79.5851C50.7254 79.1798 49.1919 78.4232 48.0839 77.3153C46.9895 76.2074 46.2194 74.613 45.7735 72.5323C45.3412 70.4516 45.125 67.7426 45.125 64.4053Z" fill="#FFFDFE"/>
<g clip-path="url(#clip0_93_726)">
<path d="M112.64 22.5214H97.2718V37.1391C99.4606 39.0086 106.985 49.9446 107.225 64L97.4328 64.1365C96.6141 43.3945 81.3059 31.1485 64.4094 31.0912V21.4352C78.2683 21.8828 87.1028 27.5896 93.9695 33.6812V19.0472H109.561C97.9623 7.33066 81.789 0 64 0C28.654 0 0 28.654 0 64C0 99.346 28.654 128 64 128C99.346 128 128 99.346 128 64C128 47.9795 122.37 33.7467 112.64 22.5214ZM95.7953 64.2729C95.7953 81.6826 81.6225 95.7953 64.1365 95.7953C46.6504 95.7953 32.4776 81.6826 32.4776 64.2729C32.4776 46.8633 46.6504 32.7505 64.1365 32.7505C81.6225 32.7505 95.7953 46.8633 95.7953 64.2729ZM10.1063 64C10.0981 32.7505 36.2985 10.0981 64.4094 10.371V21.1541C40.3923 21.0149 21.0149 40.3923 20.742 64.1365L10.1063 64ZM21.0149 63.8635H31.113C30.5672 74.2345 37.936 96.6141 64 97.4301V107.25C44.2132 106.712 21.8337 92.7932 21.0149 63.8635ZM63.8635 118.3V107.531C91.9744 106.439 107.531 85.9702 107.536 64H118.175C118.721 94.7036 93.0661 118.721 63.8635 118.3Z" fill="#09BE8B"/>
</g>
<defs>
<clipPath id="clip0_93_726">
<rect width="128" height="128" fill="white"/>
</clipPath>
</defs>
</svg>
