<svg width="109" height="20" viewBox="0 0 109 20" fill="none" xmlns="http://www.w3.org/2000/svg">
<rect width="108.69" height="20" rx="10" fill="#9333EA"/>
<path d="M12.4863 9.78125C12.2832 9.78125 12.1074 9.80664 11.959 9.85742C11.6973 9.95117 11.5 10.125 11.3672 10.3789L9.86719 10.3086L10.4648 5.61523H15.1465V7.0332H11.6719L11.3672 8.89062C11.625 8.72266 11.8262 8.61133 11.9707 8.55664C12.2129 8.4668 12.5078 8.42188 12.8555 8.42188C13.5586 8.42188 14.1719 8.6582 14.6953 9.13086C15.2188 9.60352 15.4805 10.291 15.4805 11.1934C15.4805 11.9785 15.2285 12.6797 14.7246 13.2969C14.2207 13.9141 13.4668 14.2227 12.4629 14.2227C11.6543 14.2227 10.9902 14.0059 10.4707 13.5723C9.95117 13.1387 9.66211 12.5234 9.60352 11.7266H11.2676C11.334 12.0898 11.4609 12.3711 11.6484 12.5703C11.8359 12.7656 12.1094 12.8633 12.4688 12.8633C12.8828 12.8633 13.1973 12.7188 13.4121 12.4297C13.6309 12.1367 13.7402 11.7695 13.7402 11.3281C13.7402 10.8945 13.6387 10.5293 13.4355 10.2324C13.2324 9.93164 12.916 9.78125 12.4863 9.78125ZM16.2422 9.86328H19.6055V11.4453H16.2422V9.86328ZM24.5039 14H22.793V8.14062H20.7949V7.00391C21.3223 6.98047 21.6914 6.94531 21.9023 6.89844C22.2383 6.82422 22.5117 6.67578 22.7227 6.45312C22.8672 6.30078 22.9766 6.09766 23.0508 5.84375C23.0938 5.69141 23.1152 5.57812 23.1152 5.50391H24.5039V14ZM30.8145 7.23242C30.6152 6.99414 30.3301 6.875 29.959 6.875C29.4512 6.875 29.1055 7.06445 28.9219 7.44336C28.8164 7.66211 28.7539 8.00977 28.7344 8.48633H27.1113C27.1387 7.76367 27.2695 7.17969 27.5039 6.73438C27.9492 5.88672 28.7402 5.46289 29.877 5.46289C30.7754 5.46289 31.4902 5.71289 32.0215 6.21289C32.5527 6.70898 32.8184 7.36719 32.8184 8.1875C32.8184 8.81641 32.6309 9.375 32.2559 9.86328C32.0098 10.1875 31.6055 10.5488 31.043 10.9473L30.375 11.4219C29.957 11.7188 29.6699 11.9336 29.5137 12.0664C29.3613 12.1992 29.2324 12.3535 29.127 12.5293H32.8359V14H27.0176C27.0332 13.3906 27.1641 12.834 27.4102 12.3301C27.6484 11.7637 28.2109 11.1641 29.0977 10.5312C29.8672 9.98047 30.3652 9.58594 30.5918 9.34766C30.9395 8.97656 31.1133 8.57031 31.1133 8.12891C31.1133 7.76953 31.0137 7.4707 30.8145 7.23242ZM39.293 11.9902C39.293 11.3848 39.5059 10.8691 39.9316 10.4434C40.3574 10.0215 40.8711 9.81055 41.4727 9.81055C42.0742 9.81055 42.5879 10.0234 43.0137 10.4492C43.4395 10.875 43.6523 11.3887 43.6523 11.9902C43.6523 12.5918 43.4395 13.1055 43.0137 13.5312C42.5879 13.957 42.0742 14.1699 41.4727 14.1699C40.8711 14.1699 40.3574 13.957 39.9316 13.5312C39.5059 13.1055 39.293 12.5918 39.293 11.9902ZM34.2363 9.26562C33.8105 8.83984 33.5977 8.32617 33.5977 7.72461C33.5977 7.12305 33.8105 6.60938 34.2363 6.18359C34.6621 5.75781 35.1758 5.54492 35.7773 5.54492C36.3789 5.54492 36.8926 5.75781 37.3184 6.18359C37.7441 6.60938 37.957 7.12305 37.957 7.72461C37.957 8.32617 37.7441 8.83984 37.3184 9.26562C36.8965 9.69141 36.3828 9.9043 35.7773 9.9043C35.1758 9.9043 34.6621 9.69141 34.2363 9.26562ZM36.6973 14.2227H35.7891L40.541 5.50391H41.4316L36.6973 14.2227ZM40.8164 12.6465C40.9961 12.8301 41.2148 12.9219 41.4727 12.9219C41.7305 12.9219 41.9492 12.832 42.1289 12.6523C42.3125 12.4688 42.4043 12.248 42.4043 11.9902C42.4043 11.7324 42.3125 11.5137 42.1289 11.334C41.9492 11.1504 41.7305 11.0586 41.4727 11.0586C41.2148 11.0586 40.9941 11.1504 40.8105 11.334C40.6309 11.5137 40.541 11.7324 40.541 11.9902C40.541 12.248 40.6328 12.4668 40.8164 12.6465ZM35.1211 8.38086C35.3008 8.56445 35.5195 8.65625 35.7773 8.65625C36.0352 8.65625 36.2539 8.56641 36.4336 8.38672C36.6172 8.20312 36.709 7.98242 36.709 7.72461C36.709 7.4668 36.6172 7.24805 36.4336 7.06836C36.2539 6.88477 36.0352 6.79297 35.7773 6.79297C35.5195 6.79297 35.2988 6.88477 35.1152 7.06836C34.9355 7.24805 34.8457 7.4668 34.8457 7.72461C34.8457 7.98242 34.9375 8.20117 35.1211 8.38086ZM51.9727 14H48.252V5.36328H51.9727C52.5078 5.37109 52.9531 5.43359 53.3086 5.55078C53.9141 5.75 54.4043 6.11523 54.7793 6.64648C55.0801 7.07617 55.2852 7.54102 55.3945 8.04102C55.5039 8.54102 55.5586 9.01758 55.5586 9.4707C55.5586 10.6191 55.3281 11.5918 54.8672 12.3887C54.2422 13.4629 53.2773 14 51.9727 14ZM53.3145 7.56641C53.0371 7.09766 52.4883 6.86328 51.668 6.86328H50.0039V12.5H51.668C52.5195 12.5 53.1133 12.0801 53.4492 11.2402C53.6328 10.7793 53.7246 10.2305 53.7246 9.59375C53.7246 8.71484 53.5879 8.03906 53.3145 7.56641ZM58.5059 7.61328V14H56.8125V7.61328H58.5059ZM58.5059 5.31055V6.85156H56.8125V5.31055H58.5059ZM64.5293 7.90625C65.0293 8.22656 65.3164 8.77734 65.3906 9.55859H63.7207C63.6973 9.34375 63.6367 9.17383 63.5391 9.04883C63.3555 8.82227 63.043 8.70898 62.6016 8.70898C62.2383 8.70898 61.9785 8.76562 61.8223 8.87891C61.6699 8.99219 61.5938 9.125 61.5938 9.27734C61.5938 9.46875 61.6758 9.60742 61.8398 9.69336C62.0039 9.7832 62.584 9.9375 63.5801 10.1562C64.2441 10.3125 64.7422 10.5488 65.0742 10.8652C65.4023 11.1855 65.5664 11.5859 65.5664 12.0664C65.5664 12.6992 65.3301 13.2168 64.8574 13.6191C64.3887 14.0176 63.6621 14.2168 62.6777 14.2168C61.6738 14.2168 60.9316 14.0059 60.4512 13.584C59.9746 13.1582 59.7363 12.6172 59.7363 11.9609H61.4297C61.4648 12.2578 61.541 12.4688 61.6582 12.5938C61.8652 12.8164 62.248 12.9277 62.8066 12.9277C63.1348 12.9277 63.3945 12.8789 63.5859 12.7812C63.7812 12.6836 63.8789 12.5371 63.8789 12.3418C63.8789 12.1543 63.8008 12.0117 63.6445 11.9141C63.4883 11.8164 62.9082 11.6484 61.9043 11.4102C61.1816 11.2305 60.6719 11.0059 60.375 10.7363C60.0781 10.4707 59.9297 10.0879 59.9297 9.58789C59.9297 8.99805 60.1602 8.49219 60.6211 8.07031C61.0859 7.64453 61.7383 7.43164 62.5781 7.43164C63.375 7.43164 64.0254 7.58984 64.5293 7.90625ZM72.334 9.9043H70.623C70.5918 9.66602 70.5117 9.45117 70.3828 9.25977C70.1953 9.00195 69.9043 8.87305 69.5098 8.87305C68.9473 8.87305 68.5625 9.15234 68.3555 9.71094C68.2461 10.0078 68.1914 10.4023 68.1914 10.8945C68.1914 11.3633 68.2461 11.7402 68.3555 12.0254C68.5547 12.5566 68.9297 12.8223 69.4805 12.8223C69.8711 12.8223 70.1484 12.7168 70.3125 12.5059C70.4766 12.2949 70.5762 12.0215 70.6113 11.6855H72.3164C72.2773 12.1934 72.0938 12.6738 71.7656 13.127C71.2422 13.8574 70.4668 14.2227 69.4395 14.2227C68.4121 14.2227 67.6562 13.918 67.1719 13.3086C66.6875 12.6992 66.4453 11.9082 66.4453 10.9355C66.4453 9.83789 66.7129 8.98438 67.248 8.375C67.7832 7.76562 68.5215 7.46094 69.4629 7.46094C70.2637 7.46094 70.918 7.64062 71.4258 8C71.9375 8.35938 72.2402 8.99414 72.334 9.9043ZM78.8145 8.42188C79.3535 9.09766 79.623 9.89648 79.623 10.8184C79.623 11.7559 79.3535 12.5586 78.8145 13.2266C78.2754 13.8906 77.457 14.2227 76.3594 14.2227C75.2617 14.2227 74.4434 13.8906 73.9043 13.2266C73.3652 12.5586 73.0957 11.7559 73.0957 10.8184C73.0957 9.89648 73.3652 9.09766 73.9043 8.42188C74.4434 7.74609 75.2617 7.4082 76.3594 7.4082C77.457 7.4082 78.2754 7.74609 78.8145 8.42188ZM76.3535 8.82031C75.8652 8.82031 75.4883 8.99414 75.2227 9.3418C74.9609 9.68555 74.8301 10.1777 74.8301 10.8184C74.8301 11.459 74.9609 11.9531 75.2227 12.3008C75.4883 12.6484 75.8652 12.8223 76.3535 12.8223C76.8418 12.8223 77.2168 12.6484 77.4785 12.3008C77.7402 11.9531 77.8711 11.459 77.8711 10.8184C77.8711 10.1777 77.7402 9.68555 77.4785 9.3418C77.2168 8.99414 76.8418 8.82031 76.3535 8.82031ZM84.9199 13.0977C84.9043 13.1172 84.8652 13.1758 84.8027 13.2734C84.7402 13.3711 84.666 13.457 84.5801 13.5312C84.3184 13.7656 84.0645 13.9258 83.8184 14.0117C83.5762 14.0977 83.291 14.1406 82.9629 14.1406C82.0176 14.1406 81.3809 13.8008 81.0527 13.1211C80.8691 12.7461 80.7773 12.1934 80.7773 11.4629V7.61328H82.4883V11.4629C82.4883 11.8262 82.5312 12.0996 82.6172 12.2832C82.7695 12.6074 83.0684 12.7695 83.5137 12.7695C84.084 12.7695 84.4746 12.5391 84.6855 12.0781C84.7949 11.8281 84.8496 11.498 84.8496 11.0879V7.61328H86.543V14H84.9199V13.0977ZM91.166 8.84961C90.5996 8.84961 90.2109 9.08984 90 9.57031C89.8906 9.82422 89.8359 10.1484 89.8359 10.543V14H88.1719V7.625H89.7832V8.55664C89.998 8.22852 90.2012 7.99219 90.3926 7.84766C90.7363 7.58984 91.1719 7.46094 91.6992 7.46094C92.3594 7.46094 92.8984 7.63477 93.3164 7.98242C93.7383 8.32617 93.9492 8.89844 93.9492 9.69922V14H92.2383V10.1152C92.2383 9.7793 92.1934 9.52148 92.1035 9.3418C91.9395 9.01367 91.627 8.84961 91.166 8.84961ZM98.4199 12.8105V14.0586L97.6289 14.0879C96.8398 14.1152 96.3008 13.9785 96.0117 13.6777C95.8242 13.4863 95.7305 13.1914 95.7305 12.793V8.86133H94.8398V7.67188H95.7305V5.89062H97.3828V7.67188H98.4199V8.86133H97.3828V12.2363C97.3828 12.498 97.416 12.6621 97.4824 12.7285C97.5488 12.791 97.752 12.8223 98.0918 12.8223C98.1426 12.8223 98.1953 12.8223 98.25 12.8223C98.3086 12.8184 98.3652 12.8145 98.4199 12.8105Z" fill="white"/>
</svg>
