<svg version="1.2" xmlns="http://www.w3.org/2000/svg" viewBox="0 0 148 148" width="148" height="148"><style>.a{fill:#fbfbfb}</style><path class="a" d="m46.1 13.8c6.4 4.6 12 15.7 13.3 23.4q0.3 2.9 0.6 5.8c1.7 1.4 1.7 1.4 4 2q1.2 1 2.4 1.9c8.6 5.7 20.6 5.5 30.6 5.7 5 0.2 9.2 0.8 14 2.4 0-3.3 0-6.6 0-10q1 0 2 0c0-4 0-7.9 0-12q1 0 2 0c-1.9-5.3-1.9-5.3-6-9q0.5-3 1-6 3-1.1 6-2c1 0.5 1 0.5 2 1q0 1 0 2 1.2 0.4 2.4 0.8c1.3 0.6 1.3 0.6 2.6 1.2 0.5 1.5 0.5 1.5 1 3q1.5 1 3 2c0.2 1.2 0.2 1.2 0.4 2.5 0.3 2.7 0.3 2.7 2.7 3.8q0.9 0.4 1.9 0.7-0.2 0.9-0.5 1.8c-0.6 2.3-0.6 2.3-0.5 5.2q-1 2.5-2 5-0.5 2-1 4-1.5 0-3 0 0.5 1.5 1 3-1 0-2 0-0.5 2-1 4c-2.3 0.7-4.6 1.3-7 2 0.5 0.9 0.5 0.9 0.9 1.8 1.6 3.2 2.2 5.7 2.2 9.3q0 1.1-0.1 2.3 0 2.5 0 4.9c-0.1 5.9-0.1 5.9 1 11.7 1 0.5 1 0.5 1.9 0.9 2.1 1.1 2.1 1.1 3.3 4.2 0.4 1.4 0.4 1.4 0.8 2.9q2.5 0.5 5 1 0 1 0 2 2.5 1 5 2 0 1 0 2 1 0 2 0c2.5 19.4 2.5 19.4-3.5 27.9-2 2.3-3 3-6.1 3.5-2.5 0-4.9-0.1-7.4-0.4q0-1 0-2 1 0 2 0-0.7-0.7-1.5-1.5c-2.2-3.6-1.7-6.3-1.5-10.5q-1 0-2 0-1.3-2.1-2.7-4.2c-1.5-2-3.1-3.5-5.1-5.1-8.3-7.1-13-13.4-16.3-23.9-0.6-2.7-0.6-2.7-1.9-3.8-4.6-0.8-7 0.4-10.7 2.9q-1.1 0.9-2.2 1.7c-3.1 2.1-5.5 2.5-9.1 2.5-1.1 0-1.1 0-2.3 0-1.2 0-1.2 0-2.4 0q-1.2 0-2.4-0.1-3 0-5.9 0c0.2 1.1 0.2 1.1 0.5 2.2 0.5 2.8 0.6 5.3 0.6 8.1q0 1.5 0 3c0 1.5 0 1.5 0 3q0 1.5-0.1 3.1 0 3.8 0 7.6-1 0-2 0c0.1 1 0.1 1 0.2 2.1-0.3 3.8-1.6 6.4-3.2 9.9q-1 0-2 0 0 1 0 2c-7.1 3.3-13.3 3.3-21 3q-0.5-1.5-1-3c1-0.5 1-0.5 2-1 0.5-2.3 0.9-4.6 1.1-6.9q0.2-1.1 0.3-2.2c0.6-5.6 0.8-11.2 0.8-16.8 0-1.2 0-1.2 0-2.4 0.3-3.7 0.3-3.7-1.2-6.7q-0.1-2.8-0.1-5.6 0.1-1.5 0.1-3 0-1.2 0-2.4c-1.5-0.5-1.5-0.5-3-1-5.5-7.5-4.4-13.8-3.1-22.6 0.5-3.5 1.2-6.9 2.2-10.3 1-3.5 1-6.5 0.9-10.1q-1.5 0.1-3.1 0.2c-12.2 0.5-12.2 0.5-15.8-2.5-2.1-2.7-2.1-2.7-2.1-5.7q1.3-0.4 2.6-0.8c6.1-1.9 6.1-1.9 10.4-6.1 0.3-2.1 0.3-2.1 0-5.1q1.5 0 3 0 0.1-0.9 0.1-1.8c0.9-2.2 0.9-2.2 3.1-3.9 6.1-2.1 12.8-2.8 18.9-0.5z"/></svg>