<?xml version="1.0" encoding="UTF-8"?>
<svg version="1.1" xmlns="http://www.w3.org/2000/svg" width="874" height="574">
<path d="M0 0 C17.82 0 35.64 0 54 0 C54 0.66 54 1.32 54 2 C55.80597656 1.98259766 55.80597656 1.98259766 57.6484375 1.96484375 C59.22395679 1.95546566 60.79947775 1.94636548 62.375 1.9375 C63.56609375 1.92493164 63.56609375 1.92493164 64.78125 1.91210938 C70.7734375 1.88671875 70.7734375 1.88671875 73 3 C75.20266316 3.38787256 77.41224568 3.73709495 79.625 4.0625 C80.81351562 4.23910156 82.00203125 4.41570313 83.2265625 4.59765625 C84.14179688 4.73042969 85.05703125 4.86320313 86 5 C86 5.66 86 6.32 86 7 C88.97 7 91.94 7 95 7 C95 7.66 95 8.32 95 9 C97.64 9 100.28 9 103 9 C103 9.66 103 10.32 103 11 C105.97 11 108.94 11 112 11 C112 11.66 112 12.32 112 13 C113.98 13 115.96 13 118 13 C118 13.66 118 14.32 118 15 C120.31 15 122.62 15 125 15 C125 15.66 125 16.32 125 17 C126.98 17 128.96 17 131 17 C131 17.66 131 18.32 131 19 C133.31 19.33 135.62 19.66 138 20 C138 20.66 138 21.32 138 22 C139.32 22 140.64 22 142 22 C142 22.66 142 23.32 142 24 C143.32 24 144.64 24 146 24 C146 24.66 146 25.32 146 26 C146.886875 25.95875 147.77375 25.9175 148.6875 25.875 C151.97277013 25.99897246 154.05449295 26.61387904 157 28 C157 28.66 157 29.32 157 30 C158.32 30 159.64 30 161 30 C161 30.66 161 31.32 161 32 C162.32 32 163.64 32 165 32 C165 32.66 165 33.32 165 34 C167.475 34.495 167.475 34.495 170 35 C170 35.66 170 36.32 170 37 C171.32 37 172.64 37 174 37 C174 37.66 174 38.32 174 39 C174.66 39 175.32 39 176 39 C176 39.66 176 40.32 176 41 C177.65 41 179.3 41 181 41 C181 41.66 181 42.32 181 43 C182.32 43 183.64 43 185 43 C185 43.66 185 44.32 185 45 C185.66 45 186.32 45 187 45 C187 45.66 187 46.32 187 47 C188.32 47 189.64 47 191 47 C191 47.66 191 48.32 191 49 C191.66 49 192.32 49 193 49 C193 49.99 193 50.98 193 52 C194.65 52 196.3 52 198 52 C198 52.66 198 53.32 198 54 C198.66 54 199.32 54 200 54 C200 54.66 200 55.32 200 56 C201.32 56 202.64 56 204 56 C204 56.66 204 57.32 204 58 C204.66 58 205.32 58 206 58 C206 58.66 206 59.32 206 60 C206.66 60 207.32 60 208 60 C208 60.66 208 61.32 208 62 C210.75704884 62.77670952 213.21263315 63.12809985 216.07421875 63.1328125 C216.82380859 63.13410156 217.57339844 63.13539062 218.34570312 63.13671875 C219.11849609 63.13285156 219.89128906 63.12898438 220.6875 63.125 C221.8640918 63.13080078 221.8640918 63.13080078 223.06445312 63.13671875 C226.8375047 63.49520741 226.8375047 63.49520741 230 62 C232.19477691 61.8998509 234.392784 61.86918781 236.58984375 61.8671875 C237.2495668 61.86623077 237.90928986 61.86527405 238.58900452 61.86428833 C239.98699031 61.86360664 241.38497924 61.86546014 242.78295898 61.86962891 C244.92503982 61.87496894 247.06691017 61.86968801 249.20898438 61.86328125 C250.56510463 61.8639422 251.92122476 61.86522371 253.27734375 61.8671875 C254.51734131 61.86831543 255.75733887 61.86944336 257.03491211 61.87060547 C260 62 260 62 262 63 C263.69204523 63.14091297 265.38893942 63.22583301 267.0859375 63.28125 C268.09914063 63.31863281 269.11234375 63.35601562 270.15625 63.39453125 C271.74953125 63.44673828 271.74953125 63.44673828 273.375 63.5 C275.46627782 63.56902751 277.55743631 63.64179691 279.6484375 63.71875 C280.57833496 63.74904297 281.50823242 63.77933594 282.46630859 63.81054688 C284.76735202 63.98260408 286.78935221 64.35968337 289 65 C289 65.66 289 66.32 289 67 C293.62 67 298.24 67 303 67 C303 67.66 303 68.32 303 69 C306.96 69 310.92 69 315 69 C315 69.66 315 70.32 315 71 C317.97 71 320.94 71 324 71 C324 71.66 324 72.32 324 73 C325.98 73 327.96 73 330 73 C330 73.66 330 74.32 330 75 C332.31 75 334.62 75 337 75 C337 75.66 337 76.32 337 77 C338.98 77 340.96 77 343 77 C343 77.66 343 78.32 343 79 C345.475 79.495 345.475 79.495 348 80 C348 80.66 348 81.32 348 82 C349.32 82 350.64 82 352 82 C352 82.66 352 83.32 352 84 C353.32 84 354.64 84 356 84 C356 84.66 356 85.32 356 86 C357.32 86 358.64 86 360 86 C360 86.66 360 87.32 360 88 C361.65 88 363.3 88 365 88 C365 88.66 365 89.32 365 90 C365.66 90 366.32 90 367 90 C367 90.66 367 91.32 367 92 C368.32 92 369.64 92 371 92 C371 92.66 371 93.32 371 94 C371.66 94 372.32 94 373 94 C373 94.99 373 95.98 373 97 C373.66 97 374.32 97 375 97 C375 97.66 375 98.32 375 99 C375.99 99 376.98 99 378 99 C378 99.66 378 100.32 378 101 C378.928125 101.185625 378.928125 101.185625 379.875 101.375 C382 102 382 102 384 104 C384 104.99 384 105.98 384 107 C384.66 107 385.32 107 386 107 C386 107.66 386 108.32 386 109 C386.66 109 387.32 109 388 109 C388 109.99 388 110.98 388 112 C388.66 112 389.32 112 390 112 C390 113.32 390 114.64 390 116 C390.99 116 391.98 116 393 116 C394.4606285 118.64738916 395 119.89448334 395 123 C395.66 123 396.32 123 397 123 C397 124.98 397 126.96 397 129 C397.66 129 398.32 129 399 129 C401.13050583 134.96541633 401.42869131 140.78074983 401.75390625 147.0859375 C401.67518653 149.89021821 401.67518653 149.89021821 403 151 C403.14115161 153.67058851 403.04247107 156.32432238 403 159 C402.34 159 401.68 159 401 159 C401 163.95 401 168.9 401 174 C400.34 174 399.68 174 399 174 C399 176.97 399 179.94 399 183 C398.34 183 397.68 183 397 183 C397.12375 184.175625 397.12375 184.175625 397.25 185.375 C396.91133264 190.28567679 395.41973633 194.7027425 393 199 C392.01 199.33 391.02 199.66 390 200 C390 201.32 390 202.64 390 204 C389.34 204 388.68 204 388 204 C388 205.65 388 207.3 388 209 C387.34 209 386.68 209 386 209 C386 210.32 386 211.64 386 213 C385.34 213 384.68 213 384 213 C384 214.32 384 215.64 384 217 C383.34 217 382.68 217 382 217 C381.855625 217.78375 381.71125 218.5675 381.5625 219.375 C381 222 381 222 380 224 C379.34 224 378.68 224 378 224 C377.67 225.32 377.34 226.64 377 228 C376.34 228 375.68 228 375 228 C375 228.66 375 229.32 375 230 C374.34 230 373.68 230 373 230 C373 231.32 373 232.64 373 234 C372.34 234 371.68 234 371 234 C371 234.99 371 235.98 371 237 C370.34 237 369.68 237 369 237 C369 238.32 369 239.64 369 241 C368.34 241 367.68 241 367 241 C367 241.66 367 242.32 367 243 C366.34 243 365.68 243 365 243 C365 243.66 365 244.32 365 245 C364.34 245 363.68 245 363 245 C362.67 246.32 362.34 247.64 362 249 C361.34 249 360.68 249 360 249 C360 249.66 360 250.32 360 251 C359.34 251 358.68 251 358 251 C358 251.99 358 252.98 358 254 C357.34 254 356.68 254 356 254 C356 254.66 356 255.32 356 256 C355.34 256 354.68 256 354 256 C354 256.66 354 257.32 354 258 C353.34 258 352.68 258 352 258 C351.855625 258.61875 351.71125 259.2375 351.5625 259.875 C351 262 351 262 350 264 C349.01 264 348.02 264 347 264 C347 264.66 347 265.32 347 266 C346.34 266 345.68 266 345 266 C345 266.99 345 267.98 345 269 C344.34 269 343.68 269 343 269 C343 269.66 343 270.32 343 271 C342.34 271 341.68 271 341 271 C341 271.66 341 272.32 341 273 C340.34 273 339.68 273 339 273 C339 273.66 339 274.32 339 275 C338.34 275 337.68 275 337 275 C337 275.66 337 276.32 337 277 C336.34 277 335.68 277 335 277 C335 277.66 335 278.32 335 279 C334.34 279 333.68 279 333 279 C332.67 279.99 332.34 280.98 332 282 C331.34 282 330.68 282 330 282 C330 282.66 330 283.32 330 284 C329.34 284 328.68 284 328 284 C328 284.66 328 285.32 328 286 C327.34 286 326.68 286 326 286 C326 286.66 326 287.32 326 288 C325.34 288 324.68 288 324 288 C324 288.66 324 289.32 324 290 C323.34 290 322.68 290 322 290 C322 290.66 322 291.32 322 292 C321.34 292 320.68 292 320 292 C320.01160156 292.91523438 320.02320313 293.83046875 320.03515625 294.7734375 C320.04869141 296.55621094 320.04869141 296.55621094 320.0625 298.375 C320.07410156 299.55835938 320.08570313 300.74171875 320.09765625 301.9609375 C320 305 320 305 319 307 C318.79243503 309.83672119 318.62592736 312.65963837 318.5 315.5 C318.13513514 323.72972973 318.13513514 323.72972973 317 326 C316.34 326 315.68 326 315 326 C315 329.63 315 333.26 315 337 C314.34 337 313.68 337 313 337 C313 340.63 313 344.26 313 348 C312.34 348 311.68 348 311 348 C311 350.64 311 353.28 311 356 C310.34 356 309.68 356 309 356 C309.04125 357.175625 309.0825 358.35125 309.125 359.5625 C309.13983635 363.72409674 308.31170778 367.06487667 307 371 C306.34 371 305.68 371 305 371 C305 373.31 305 375.62 305 378 C304.34 378 303.68 378 303 378 C303 379.32 303 380.64 303 382 C302.01 382 301.02 382 300 382 C300 384.31 300 386.62 300 389 C299.34 389 298.68 389 298 389 C298 390.32 298 391.64 298 393 C297.34 393 296.68 393 296 393 C296 394.98 296 396.96 296 399 C295.34 399 294.68 399 294 399 C293.855625 399.7425 293.71125 400.485 293.5625 401.25 C293.09812508 403.52027739 292.58136431 405.75759479 292 408 C291.34 408 290.68 408 290 408 C290 409.32 290 410.64 290 412 C289.34 412 288.68 412 288 412 C288 413.32 288 414.64 288 416 C287.01 416 286.02 416 285 416 C285 417.65 285 419.3 285 421 C284.34 421 283.68 421 283 421 C283 421.66 283 422.32 283 423 C282.34 423 281.68 423 281 423 C281 424.32 281 425.64 281 427 C280.34 427 279.68 427 279 427 C279 428.32 279 429.64 279 431 C278.34 431 277.68 431 277 431 C277 431.99 277 432.98 277 434 C276.34 434 275.68 434 275 434 C274.855625 434.61875 274.71125 435.2375 274.5625 435.875 C274 438 274 438 273 440 C272.34 440 271.68 440 271 440 C270.67 441.32 270.34 442.64 270 444 C269.34 444 268.68 444 268 444 C268 444.99 268 445.98 268 447 C267.34 447 266.68 447 266 447 C266 447.99 266 448.98 266 450 C265.34 450 264.68 450 264 450 C264 450.99 264 451.98 264 453 C263.34 453 262.68 453 262 453 C262 453.66 262 454.32 262 455 C261.34 455 260.68 455 260 455 C260 455.66 260 456.32 260 457 C259.34 457 258.68 457 258 457 C258 458.32 258 459.64 258 461 C256.625 462.75 256.625 462.75 255 464 C254.34 464 253.68 464 253 464 C253 464.66 253 465.32 253 466 C252.34 466 251.68 466 251 466 C251 466.66 251 467.32 251 468 C250.34 468 249.68 468 249 468 C249 468.66 249 469.32 249 470 C248.34 470 247.68 470 247 470 C247 470.66 247 471.32 247 472 C246.34 472 245.68 472 245 472 C244.731875 472.7425 244.46375 473.485 244.1875 474.25 C243.04723249 476.89061949 241.90619694 478.85552844 240 481 C239.34 481 238.68 481 238 481 C238 481.66 238 482.32 238 483 C237.34 483 236.68 483 236 483 C236 483.66 236 484.32 236 485 C235.34 485 234.68 485 234 485 C234 485.66 234 486.32 234 487 C233.34 487 232.68 487 232 487 C232 487.66 232 488.32 232 489 C231.01 489 230.02 489 229 489 C228.67 489.99 228.34 490.98 228 492 C225.4375 493.1875 225.4375 493.1875 223 494 C223 494.66 223 495.32 223 496 C222.34 496 221.68 496 221 496 C221 496.66 221 497.32 221 498 C220.34 498 219.68 498 219 498 C219 498.66 219 499.32 219 500 C218.34 500 217.68 500 217 500 C217 500.66 217 501.32 217 502 C216.01 502 215.02 502 214 502 C214 502.66 214 503.32 214 504 C213.01 504 212.02 504 211 504 C210.67 504.99 210.34 505.98 210 507 C209.34 507 208.68 507 208 507 C208 507.66 208 508.32 208 509 C206.02 509.66 204.04 510.32 202 511 C202 511.66 202 512.32 202 513 C201.34 513 200.68 513 200 513 C200 513.66 200 514.32 200 515 C199.01 515 198.02 515 197 515 C197 515.66 197 516.32 197 517 C195.68 517 194.36 517 193 517 C193 517.66 193 518.32 193 519 C192.34 519 191.68 519 191 519 C191 519.66 191 520.32 191 521 C188.09451118 523.04169485 186.59857954 524 183 524 C183 524.66 183 525.32 183 526 C182.01 526 181.02 526 180 526 C180 526.66 180 527.32 180 528 C178.68 528 177.36 528 176 528 C176 528.66 176 529.32 176 530 C174.68 530 173.36 530 172 530 C172 530.66 172 531.32 172 532 C170.68 532 169.36 532 168 532 C168 532.66 168 533.32 168 534 C166.35 534 164.7 534 163 534 C163 534.99 163 535.98 163 537 C159.91190305 538.76462683 158.76687864 539 155 539 C155 539.66 155 540.32 155 541 C151.62902617 542.49821059 149.79557881 543 146 543 C146 543.66 146 544.32 146 545 C142.49223216 546.60355101 139.85645121 547.22036864 136 547 C136 547.66 136 548.32 136 549 C133.69 549 131.38 549 129 549 C128.67 549.99 128.34 550.98 128 552 C125.48828125 553.16796875 125.48828125 553.16796875 122.3125 554.1875 C121.27738281 554.53167969 120.24226563 554.87585938 119.17578125 555.23046875 C115.98957443 556.00252624 113.26394182 556.14191051 110 556 C110 556.66 110 557.32 110 558 C107.03 558 104.06 558 101 558 C101 558.66 101 559.32 101 560 C98.94921875 560.22786458 96.8984375 560.45572917 94.84765625 560.68359375 C92.98859771 560.81886614 92.98859771 560.81886614 92 562 C90.31391034 562.07205511 88.62499341 562.08386068 86.9375 562.0625 C86.01839844 562.05347656 85.09929687 562.04445313 84.15234375 562.03515625 C83.44207031 562.02355469 82.73179687 562.01195312 82 562 C82 562.66 82 563.32 82 564 C77.71 564 73.42 564 69 564 C69 564.66 69 565.32 69 566 C66.14839609 566.81434143 63.63373869 567.11881242 60.671875 567.09765625 C59.87265625 567.09443359 59.0734375 567.09121094 58.25 567.08789062 C57.425 567.07951172 56.6 567.07113281 55.75 567.0625 C54.90953125 567.05798828 54.0690625 567.05347656 53.203125 567.04882812 C51.13538599 567.03707961 49.06768376 567.01914522 47 567 C46.67 567.66 46.34 568.32 46 569 C40.62484067 569.02467759 35.24971415 569.04284928 29.87451172 569.05493164 C28.04507879 569.05996737 26.21564991 569.06679627 24.38623047 569.07543945 C21.76008102 569.08753824 19.13398468 569.09323583 16.5078125 569.09765625 C15.68693146 569.10281754 14.86605042 569.10797882 14.02029419 569.11329651 C8.22774341 569.11387171 8.22774341 569.11387171 6 568 C3.20482283 567.79166381 0.4239391 567.62553381 -2.375 567.5 C-3.90381594 567.43074156 -5.4324762 567.3579375 -6.9609375 567.28125 C-7.97873291 567.23581055 -7.97873291 567.23581055 -9.01708984 567.18945312 C-11.09061986 566.99134191 -12.99460237 566.55359957 -15 566 C-15 565.34 -15 564.68 -15 564 C-19.29 564 -23.58 564 -28 564 C-28 563.34 -28 562.68 -28 562 C-31.63 562 -35.26 562 -39 562 C-39 561.34 -39 560.68 -39 560 C-41.64 560 -44.28 560 -47 560 C-47 559.34 -47 558.68 -47 558 C-49.97 558 -52.94 558 -56 558 C-56 557.34 -56 556.68 -56 556 C-57.98 556 -59.96 556 -62 556 C-62 555.34 -62 554.68 -62 554 C-64.31 554 -66.62 554 -69 554 C-69 553.34 -69 552.68 -69 552 C-70.65 552 -72.3 552 -74 552 C-74.33 551.01 -74.66 550.02 -75 549 C-77.31 549 -79.62 549 -82 549 C-82 548.34 -82 547.68 -82 547 C-83.32 547 -84.64 547 -86 547 C-86 546.34 -86 545.68 -86 545 C-87.98 545 -89.96 545 -92 545 C-92 544.34 -92 543.68 -92 543 C-92.7425 542.855625 -93.485 542.71125 -94.25 542.5625 C-96.52027739 542.09812508 -98.75759479 541.58136431 -101 541 C-101 540.34 -101 539.68 -101 539 C-102.32 539 -103.64 539 -105 539 C-105 538.34 -105 537.68 -105 537 C-106.65 536.67 -108.3 536.34 -110 536 C-110 535.34 -110 534.68 -110 534 C-111.32 534 -112.64 534 -114 534 C-114 533.34 -114 532.68 -114 532 C-115.32 532 -116.64 532 -118 532 C-118 531.34 -118 530.68 -118 530 C-119.32 530 -120.64 530 -122 530 C-122 529.34 -122 528.68 -122 528 C-122.99 528 -123.98 528 -125 528 C-125 527.34 -125 526.68 -125 526 C-126.32 526 -127.64 526 -129 526 C-129 525.34 -129 524.68 -129 524 C-129.61875 523.9175 -130.2375 523.835 -130.875 523.75 C-133 523 -133 523 -134.25 520.9375 C-134.4975 520.298125 -134.745 519.65875 -135 519 C-136.32 519 -137.64 519 -139 519 C-139 518.34 -139 517.68 -139 517 C-139.99 517 -140.98 517 -142 517 C-142 516.34 -142 515.68 -142 515 C-143.32 515 -144.64 515 -146 515 C-146 514.34 -146 513.68 -146 513 C-146.66 513 -147.32 513 -148 513 C-148 512.34 -148 511.68 -148 511 C-148.66 511 -149.32 511 -150 511 C-150 510.34 -150 509.68 -150 509 C-150.598125 508.87625 -151.19625 508.7525 -151.8125 508.625 C-154 508 -154 508 -157 506 C-157 505.34 -157 504.68 -157 504 C-157.66 504 -158.32 504 -159 504 C-159 503.34 -159 502.68 -159 502 C-160.32 502 -161.64 502 -163 502 C-163 501.34 -163 500.68 -163 500 C-163.66 500 -164.32 500 -165 500 C-165 499.34 -165 498.68 -165 498 C-165.66 498 -166.32 498 -167 498 C-167 497.34 -167 496.68 -167 496 C-186.8 496 -206.6 496 -227 496 C-227 495.34 -227 494.68 -227 494 C-228.05960937 494.01160156 -229.11921875 494.02320313 -230.2109375 494.03515625 C-231.59895658 494.04453476 -232.98697755 494.05363489 -234.375 494.0625 C-235.07367188 494.07087891 -235.77234375 494.07925781 -236.4921875 494.08789062 C-241.7734375 494.11328125 -241.7734375 494.11328125 -244 493 C-245.70363822 492.77377919 -247.41328701 492.59111527 -249.125 492.4375 C-250.03507812 492.35371094 -250.94515625 492.26992188 -251.8828125 492.18359375 C-252.58148438 492.12300781 -253.28015625 492.06242187 -254 492 C-254.495 490.515 -254.495 490.515 -255 489 C-258.63 489 -262.26 489 -266 489 C-266 488.34 -266 487.68 -266 487 C-267.98 487 -269.96 487 -272 487 C-272 486.34 -272 485.68 -272 485 C-274.31 485 -276.62 485 -279 485 C-279 484.34 -279 483.68 -279 483 C-280.98 483 -282.96 483 -285 483 C-285 482.34 -285 481.68 -285 481 C-286.98 481 -288.96 481 -291 481 C-291 480.34 -291 479.68 -291 479 C-291.7425 478.87625 -292.485 478.7525 -293.25 478.625 C-295.80141485 478.04513299 -297.7267573 477.26291261 -300 476 C-300 475.34 -300 474.68 -300 474 C-301.32 474 -302.64 474 -304 474 C-304 473.34 -304 472.68 -304 472 C-304.99 472 -305.98 472 -307 472 C-307 471.34 -307 470.68 -307 470 C-308.32 470 -309.64 470 -311 470 C-311 469.34 -311 468.68 -311 468 C-311.66 468 -312.32 468 -313 468 C-313 467.34 -313 466.68 -313 466 C-314.32 466 -315.64 466 -317 466 C-317 465.34 -317 464.68 -317 464 C-317.66 464 -318.32 464 -319 464 C-319 463.34 -319 462.68 -319 462 C-319.99 461.67 -320.98 461.34 -322 461 C-322 460.34 -322 459.68 -322 459 C-322.66 459 -323.32 459 -324 459 C-324 458.34 -324 457.68 -324 457 C-324.66 457 -325.32 457 -326 457 C-326 456.34 -326 455.68 -326 455 C-326.66 455 -327.32 455 -328 455 C-328 454.34 -328 453.68 -328 453 C-328.66 453 -329.32 453 -330 453 C-330 452.34 -330 451.68 -330 451 C-330.66 451 -331.32 451 -332 451 C-332 450.01 -332 449.02 -332 448 C-332.66 448 -333.32 448 -334 448 C-334 446.68 -334 445.36 -334 444 C-334.99 443.67 -335.98 443.34 -337 443 C-337 442.01 -337 441.02 -337 440 C-337.66 440 -338.32 440 -339 440 C-339 438.68 -339 437.36 -339 436 C-339.66 436 -340.32 436 -341 436 C-341 434.35 -341 432.7 -341 431 C-341.66 431 -342.32 431 -343 431 C-343 429.02 -343 427.04 -343 425 C-343.66 425 -344.32 425 -345 425 C-345 420.05 -345 415.1 -345 410 C-345.66 410 -346.32 410 -347 410 C-347 407.03 -347 404.06 -347 401 C-346.34 401 -345.68 401 -345 401 C-345 395.39 -345 389.78 -345 384 C-344.34 384 -343.68 384 -343 384 C-343 381.69 -343 379.38 -343 377 C-342.34 377 -341.68 377 -341 377 C-341 374.36 -341 371.72 -341 369 C-340.34 369 -339.68 369 -339 369 C-338.87625 368.2575 -338.7525 367.515 -338.625 366.75 C-338.04513299 364.19858515 -337.26291261 362.2732427 -336 360 C-335.34 360 -334.68 360 -334 360 C-334 358.02 -334 356.04 -334 354 C-333.34 354 -332.68 354 -332 354 C-331.855625 353.2575 -331.71125 352.515 -331.5625 351.75 C-331.09812508 349.47972261 -330.58136431 347.24240521 -330 345 C-329.34 345 -328.68 345 -328 345 C-328 344.34 -328 343.68 -328 343 C-327.34 343 -326.68 343 -326 343 C-326 341.68 -326 340.36 -326 339 C-325.34 339 -324.68 339 -324 339 C-323.9175 338.21625 -323.835 337.4325 -323.75 336.625 C-323 334 -323 334 -320.9375 332.6875 C-319.9784375 332.3471875 -319.9784375 332.3471875 -319 332 C-319 330.68 -319 329.36 -319 328 C-318.34 328 -317.68 328 -317 328 C-317 327.34 -317 326.68 -317 326 C-316.34 326 -315.68 326 -315 326 C-315 324.68 -315 323.36 -315 322 C-314.34 322 -313.68 322 -313 322 C-312.34 320.35 -311.68 318.7 -311 317 C-310.34 317 -309.68 317 -309 317 C-309 315.68 -309 314.36 -309 313 C-308.01 313 -307.02 313 -306 313 C-306 312.34 -306 311.68 -306 311 C-305.34 311 -304.68 311 -304 311 C-304 310.34 -304 309.68 -304 309 C-303.34 309 -302.68 309 -302 309 C-302 308.01 -302 307.02 -302 306 C-301.34 306 -300.68 306 -300 306 C-300 305.01 -300 304.02 -300 303 C-299.34 303 -298.68 303 -298 303 C-298 302.01 -298 301.02 -298 300 C-297.34 300 -296.68 300 -296 300 C-296 299.34 -296 298.68 -296 298 C-295.34 298 -294.68 298 -294 298 C-294 297.34 -294 296.68 -294 296 C-293.34 296 -292.68 296 -292 296 C-292 295.34 -292 294.68 -292 294 C-291.01 294 -290.02 294 -289 294 C-289 293.01 -289 292.02 -289 291 C-288.34 291 -287.68 291 -287 291 C-287 290.34 -287 289.68 -287 289 C-286.34 289 -285.68 289 -285 289 C-285 288.34 -285 287.68 -285 287 C-284.34 287 -283.68 287 -283 287 C-283 286.34 -283 285.68 -283 285 C-282.34 285 -281.68 285 -281 285 C-281 284.34 -281 283.68 -281 283 C-280.34 283 -279.68 283 -279 283 C-279 282.34 -279 281.68 -279 281 C-278.34 281 -277.68 281 -277 281 C-277 280.34 -277 279.68 -277 279 C-276.01 279 -275.02 279 -274 279 C-274 278.01 -274 277.02 -274 276 C-273.34 276 -272.68 276 -272 276 C-272 275.34 -272 274.68 -272 274 C-271.34 274 -270.68 274 -270 274 C-270 273.34 -270 272.68 -270 272 C-269.34 272 -268.68 272 -268 272 C-268 271.34 -268 270.68 -268 270 C-267.34 270 -266.68 270 -266 270 C-266 269.34 -266 268.68 -266 268 C-265.34 268 -264.68 268 -264 268 C-264 261.07 -264 254.14 -264 247 C-263.34 247 -262.68 247 -262 247 C-262.01160156 246.08476562 -262.02320313 245.16953125 -262.03515625 244.2265625 C-262.04417969 243.03804687 -262.05320312 241.84953125 -262.0625 240.625 C-262.07410156 239.44164062 -262.08570313 238.25828125 -262.09765625 237.0390625 C-262 234 -262 234 -261 232 C-260.34 232 -259.68 232 -259 232 C-259 229.03 -259 226.06 -259 223 C-258.34 223 -257.68 223 -257 223 C-257 220.03 -257 217.06 -257 214 C-256.34 214 -255.68 214 -255 214 C-255 211.36 -255 208.72 -255 206 C-254.34 206 -253.68 206 -253 206 C-253 203.69 -253 201.38 -253 199 C-252.34 199 -251.68 199 -251 199 C-251 197.02 -251 195.04 -251 193 C-250.34 193 -249.68 193 -249 193 C-249 191.02 -249 189.04 -249 187 C-248.34 187 -247.68 187 -247 187 C-247 185.02 -247 183.04 -247 181 C-246.01 180.67 -245.02 180.34 -244 180 C-244 178.68 -244 177.36 -244 176 C-243.34 176 -242.68 176 -242 176 C-242 174.35 -242 172.7 -242 171 C-241.34 171 -240.68 171 -240 171 C-240 169.02 -240 167.04 -240 165 C-239.34 165 -238.68 165 -238 165 C-238 163.68 -238 162.36 -238 161 C-237.34 161 -236.68 161 -236 161 C-236 159.68 -236 158.36 -236 157 C-235.34 157 -234.68 157 -234 157 C-233.855625 156.21625 -233.71125 155.4325 -233.5625 154.625 C-233 152 -233 152 -232 150 C-231.01 150 -230.02 150 -229 150 C-229 148.68 -229 147.36 -229 146 C-228.34 146 -227.68 146 -227 146 C-227 144.68 -227 143.36 -227 142 C-226.34 142 -225.68 142 -225 142 C-225 140.68 -225 139.36 -225 138 C-224.34 138 -223.68 138 -223 138 C-223 137.01 -223 136.02 -223 135 C-222.34 135 -221.68 135 -221 135 C-221 133.68 -221 132.36 -221 131 C-220.34 131 -219.68 131 -219 131 C-219 130.34 -219 129.68 -219 129 C-218.34 129 -217.68 129 -217 129 C-216.9175 128.21625 -216.835 127.4325 -216.75 126.625 C-216 124 -216 124 -213.9375 122.6875 C-213.298125 122.460625 -212.65875 122.23375 -212 122 C-212 121.34 -212 120.68 -212 120 C-211.34 120 -210.68 120 -210 120 C-210 118.68 -210 117.36 -210 116 C-209.34 116 -208.68 116 -208 116 C-208 115.34 -208 114.68 -208 114 C-207.34 114 -206.68 114 -206 114 C-206 113.34 -206 112.68 -206 112 C-205.34 112 -204.68 112 -204 112 C-203.9175 111.2575 -203.835 110.515 -203.75 109.75 C-202.85190201 106.45697405 -201.61583926 105.14023212 -199 103 C-198.34 103 -197.68 103 -197 103 C-197 102.34 -197 101.68 -197 101 C-196.34 101 -195.68 101 -195 101 C-195 100.34 -195 99.68 -195 99 C-194.34 99 -193.68 99 -193 99 C-193 98.34 -193 97.68 -193 97 C-192.34 97 -191.68 97 -191 97 C-191 95.68 -191 94.36 -191 93 C-190.34 93 -189.68 93 -189 93 C-188.731875 92.360625 -188.46375 91.72125 -188.1875 91.0625 C-187 89 -187 89 -184 88 C-184 87.34 -184 86.68 -184 86 C-183.34 86 -182.68 86 -182 86 C-182 85.34 -182 84.68 -182 84 C-181.34 84 -180.68 84 -180 84 C-180 83.34 -180 82.68 -180 82 C-179.34 82 -178.68 82 -178 82 C-178 81.34 -178 80.68 -178 80 C-177.34 80 -176.68 80 -176 80 C-176 79.34 -176 78.68 -176 78 C-174.68 77.67 -173.36 77.34 -172 77 C-172 76.34 -172 75.68 -172 75 C-171.34 75 -170.68 75 -170 75 C-170 74.34 -170 73.68 -170 73 C-169.01 73 -168.02 73 -167 73 C-167 72.34 -167 71.68 -167 71 C-166.34 71 -165.68 71 -165 71 C-165 70.34 -165 69.68 -165 69 C-164.34 69 -163.68 69 -163 69 C-163 68.34 -163 67.68 -163 67 C-159.53846154 64 -159.53846154 64 -157 64 C-157 63.34 -157 62.68 -157 62 C-155.35 61.34 -153.7 60.68 -152 60 C-152 59.34 -152 58.68 -152 58 C-150.68 58 -149.36 58 -148 58 C-148 57.34 -148 56.68 -148 56 C-147.34 56 -146.68 56 -146 56 C-146 55.34 -146 54.68 -146 54 C-145.01 54 -144.02 54 -143 54 C-143 53.34 -143 52.68 -143 52 C-142.01 52 -141.02 52 -140 52 C-139.67 51.01 -139.34 50.02 -139 49 C-135.9375 47.8125 -135.9375 47.8125 -133 47 C-133 46.34 -133 45.68 -133 45 C-126.5 41 -126.5 41 -122 41 C-122 40.34 -122 39.68 -122 39 C-120.68 39 -119.36 39 -118 39 C-118 38.34 -118 37.68 -118 37 C-117.34 37 -116.68 37 -116 37 C-116 36.34 -116 35.68 -116 35 C-113.75474054 33.82333996 -111.50455858 32.6585926 -109.25 31.5 C-108.61578125 31.16613281 -107.9815625 30.83226563 -107.328125 30.48828125 C-103.87989007 28.72824467 -101.95159931 28 -98 28 C-98 27.34 -98 26.68 -98 26 C-96.02 26 -94.04 26 -92 26 C-92 25.34 -92 24.68 -92 24 C-90.68 24 -89.36 24 -88 24 C-88 23.34 -88 22.68 -88 22 C-86.35 22 -84.7 22 -83 22 C-83 21.34 -83 20.68 -83 20 C-81.75336669 19.49166409 -80.50250613 18.99368855 -79.25 18.5 C-78.20585938 18.08234375 -78.20585938 18.08234375 -77.140625 17.65625 C-75 17 -75 17 -71 17 C-71 16.34 -71 15.68 -71 15 C-68.69 15 -66.38 15 -64 15 C-64 14.34 -64 13.68 -64 13 C-58.75614911 11.2520497 -54.52677733 10.80607799 -49 11 C-49 10.34 -49 9.68 -49 9 C-46.36 9 -43.72 9 -41 9 C-41 8.34 -41 7.68 -41 7 C-37.37 7 -33.74 7 -30 7 C-30 6.34 -30 5.68 -30 5 C-27.13109771 3.56554886 -24.26195706 3.56926882 -21.09375 3.28125 C-18.94556067 3.107845 -18.94556067 3.107845 -17 2 C-14.11629667 1.92805131 -11.25760336 1.90708292 -8.375 1.9375 C-7.57320313 1.94201172 -6.77140625 1.94652344 -5.9453125 1.95117188 C-3.96350994 1.96296832 -1.98174567 1.98090395 0 2 C0 1.34 0 0.68 0 0 Z M8 53 C5.24907867 53.35737952 2.50950329 53.66405578 -0.25 53.9375 C-7.87929471 54.73377243 -15.43120967 55.74299242 -23 57 C-23 57.66 -23 58.32 -23 59 C-25.97 59 -28.94 59 -32 59 C-32 59.66 -32 60.32 -32 61 C-34.64 61 -37.28 61 -40 61 C-40 61.66 -40 62.32 -40 63 C-42.31 63 -44.62 63 -47 63 C-47 63.66 -47 64.32 -47 65 C-48.98 65 -50.96 65 -53 65 C-53 65.66 -53 66.32 -53 67 C-53.94875 66.95875 -54.8975 66.9175 -55.875 66.875 C-59.10244856 66.65026182 -59.10244856 66.65026182 -61 69 C-62.52056618 69.59834554 -64.06612088 70.13506656 -65.625 70.625 C-66.85089844 71.01558594 -66.85089844 71.01558594 -68.1015625 71.4140625 C-68.72804688 71.60742188 -69.35453125 71.80078125 -70 72 C-70 72.66 -70 73.32 -70 74 C-71.65 74 -73.3 74 -75 74 C-75 74.66 -75 75.32 -75 76 C-76.32 76 -77.64 76 -79 76 C-79 76.66 -79 77.32 -79 78 C-80.32 78 -81.64 78 -83 78 C-83 78.66 -83 79.32 -83 80 C-84.32 80 -85.64 80 -87 80 C-87 80.66 -87 81.32 -87 82 C-88.65 82 -90.3 82 -92 82 C-92 82.99 -92 83.98 -92 85 C-93.32 85 -94.64 85 -96 85 C-96 85.66 -96 86.32 -96 87 C-96.61875 87.144375 -97.2375 87.28875 -97.875 87.4375 C-100.03258322 87.93152225 -100.03258322 87.93152225 -102 89 C-102 89.66 -102 90.32 -102 91 C-103.65 91 -105.3 91 -107 91 C-107 91.66 -107 92.32 -107 93 C-107.66 93 -108.32 93 -109 93 C-109 93.66 -109 94.32 -109 95 C-110.32 95 -111.64 95 -113 95 C-113 95.66 -113 96.32 -113 97 C-113.66 97 -114.32 97 -115 97 C-115.639375 97.639375 -116.27875 98.27875 -116.9375 98.9375 C-119 101 -119 101 -122 102 C-122 102.66 -122 103.32 -122 104 C-122.66 104 -123.32 104 -124 104 C-124 104.66 -124 105.32 -124 106 C-124.66 106 -125.32 106 -126 106 C-126 106.66 -126 107.32 -126 108 C-127.98 108.66 -129.96 109.32 -132 110 C-132 110.66 -132 111.32 -132 112 C-132.66 112 -133.32 112 -134 112 C-134 112.99 -134 113.98 -134 115 C-134.99 115 -135.98 115 -137 115 C-137 115.66 -137 116.32 -137 117 C-137.66 117 -138.32 117 -139 117 C-139 117.66 -139 118.32 -139 119 C-139.66 119 -140.32 119 -141 119 C-141 119.66 -141 120.32 -141 121 C-141.66 121 -142.32 121 -143 121 C-143 121.66 -143 122.32 -143 123 C-143.66 123 -144.32 123 -145 123 C-145 123.66 -145 124.32 -145 125 C-145.66 125 -146.32 125 -147 125 C-147 125.66 -147 126.32 -147 127 C-147.66 127 -148.32 127 -149 127 C-150.66666667 128.33333333 -150.66666667 128.33333333 -152 130 C-152 130.66 -152 131.32 -152 132 C-152.66 132 -153.32 132 -154 132 C-154 132.66 -154 133.32 -154 134 C-154.66 134 -155.32 134 -156 134 C-156 134.66 -156 135.32 -156 136 C-156.66 136 -157.32 136 -158 136 C-158.66 137.98 -159.32 139.96 -160 142 C-160.66 142 -161.32 142 -162 142 C-162.66 143.65 -163.32 145.3 -164 147 C-164.66 147 -165.32 147 -166 147 C-166.495 148.98 -166.495 148.98 -167 151 C-167.66 151 -168.32 151 -169 151 C-169 151.66 -169 152.32 -169 153 C-169.66 153 -170.32 153 -171 153 C-171 154.32 -171 155.64 -171 157 C-171.66 157 -172.32 157 -173 157 C-173 157.66 -173 158.32 -173 159 C-173.66 159 -174.32 159 -175 159 C-176.4606285 161.64738916 -177 162.89448334 -177 166 C-177.66 166 -178.32 166 -179 166 C-179.66 167.98 -180.32 169.96 -181 172 C-181.99 172 -182.98 172 -184 172 C-184 173.65 -184 175.3 -184 177 C-184.66 177 -185.32 177 -186 177 C-186 178.32 -186 179.64 -186 181 C-186.66 181 -187.32 181 -188 181 C-188 182.32 -188 183.64 -188 185 C-188.66 185 -189.32 185 -190 185 C-191.49821059 188.37097383 -192 190.20442119 -192 194 C-192.66 194 -193.32 194 -194 194 C-195.31626692 197.61973402 -196 200.09567131 -196 204 C-196.99 204 -197.98 204 -199 204 C-199 206.31 -199 208.62 -199 211 C-199.66 211 -200.32 211 -201 211 C-201 212.98 -201 214.96 -201 217 C-201.66 217 -202.32 217 -203 217 C-203 217.66 -203 218.32 -203 219 C-202.34 219 -201.68 219 -201 219 C-201 219.66 -201 220.32 -201 221 C-201.66 221 -202.32 221 -203 221 C-203.2165625 222.9490625 -203.2165625 222.9490625 -203.4375 224.9375 C-203.875 228.875 -203.875 228.875 -205 230 C-205.20604085 231.32781878 -205.3662959 232.66295895 -205.5 234 C-205.88888889 237.88888889 -205.88888889 237.88888889 -207 239 C-207.20839015 240.64107242 -207.36751725 242.28856293 -207.5 243.9375 C-207.89022298 248.78044597 -207.89022298 248.78044597 -209 251 C-209.20802924 253.4414543 -209.37410021 255.86678005 -209.5 258.3125 C-209.89520787 265.51798634 -209.89520787 265.51798634 -210.50927734 268.3425293 C-211.06479837 271.35091055 -211.12959735 274.15976453 -211.1328125 277.21875 C-211.13410156 278.39824219 -211.13539063 279.57773437 -211.13671875 280.79296875 C-211.13285156 282.01628906 -211.12898437 283.23960937 -211.125 284.5 C-211.12886719 285.72332031 -211.13273438 286.94664062 -211.13671875 288.20703125 C-211.13542969 289.38652344 -211.13414062 290.56601562 -211.1328125 291.78125 C-211.13168457 292.85439453 -211.13055664 293.92753906 -211.12939453 295.03320312 C-211.00831826 297.80927642 -210.58875886 300.2918786 -210 303 C-209.75332849 306.24441556 -209.56179928 309.48699176 -209.39453125 312.73632812 C-209.22611563 316.49290933 -209.22611563 316.49290933 -208 320 C-207.68954474 322.59143905 -207.49026088 325.18371732 -207.28125 327.78515625 C-207.2334259 329.97070668 -207.2334259 329.97070668 -206 331 C-205.54540142 333.65463121 -205.29756762 336.32189138 -205 339 C-204.34 339 -203.68 339 -203 339 C-203 341.64 -203 344.28 -203 347 C-202.34 347 -201.68 347 -201 347 C-201 349.31 -201 351.62 -201 354 C-200.34 354 -199.68 354 -199 354 C-199 355.98 -199 357.96 -199 360 C-198.34 360 -197.68 360 -197 360 C-196.731875 360.94875 -196.46375 361.8975 -196.1875 362.875 C-194.83956113 367.59763473 -193.41901498 372.29833036 -192 377 C-191.34 377 -190.68 377 -190 377 C-189.7834375 378.11375 -189.7834375 378.11375 -189.5625 379.25 C-189.09812508 381.52027739 -188.58136431 383.75759479 -188 386 C-187.34 386 -186.68 386 -186 386 C-186 387.32 -186 388.64 -186 390 C-185.34 390 -184.68 390 -184 390 C-184 391.32 -184 392.64 -184 394 C-183.01 394 -182.02 394 -181 394 C-180.855625 394.78375 -180.71125 395.5675 -180.5625 396.375 C-180.12201075 398.96421018 -180.12201075 398.96421018 -179 401 C-178.34 401 -177.68 401 -177 401 C-177 402.32 -177 403.64 -177 405 C-176.34 405 -175.68 405 -175 405 C-174.34 406.98 -173.68 408.96 -173 411 C-172.34 411 -171.68 411 -171 411 C-171 411.99 -171 412.98 -171 414 C-170.34 414 -169.68 414 -169 414 C-169 415.32 -169 416.64 -169 418 C-168.01 418 -167.02 418 -166 418 C-166 418.66 -166 419.32 -166 420 C-165.34 420 -164.68 420 -164 420 C-163.34 421.98 -162.68 423.96 -162 426 C-161.34 426 -160.68 426 -160 426 C-160 426.99 -160 427.98 -160 429 C-159.34 429 -158.68 429 -158 429 C-158 429.66 -158 430.32 -158 431 C-157.34 431 -156.68 431 -156 431 C-156 431.66 -156 432.32 -156 433 C-155.34 433 -154.68 433 -154 433 C-154 433.66 -154 434.32 -154 435 C-153.34 435 -152.68 435 -152 435 C-152 435.66 -152 436.32 -152 437 C-151.34 437 -150.68 437 -150 437 C-149.5978125 437.8353125 -149.5978125 437.8353125 -149.1875 438.6875 C-147.89100504 441.21225334 -146.57523677 443.63714484 -145 446 C-144.34 446 -143.68 446 -143 446 C-143 446.66 -143 447.32 -143 448 C-140.18490007 450.2773501 -140.18490007 450.2773501 -137 450 C-137 450.66 -137 451.32 -137 452 C-136.34 452 -135.68 452 -135 452 C-135 452.66 -135 453.32 -135 454 C-132.66666667 456.66666667 -132.66666667 456.66666667 -130 459 C-129.34 459 -128.68 459 -128 459 C-128 459.66 -128 460.32 -128 461 C-127.34 461 -126.68 461 -126 461 C-126 461.66 -126 462.32 -126 463 C-124.68 463 -123.36 463 -122 463 C-122 463.66 -122 464.32 -122 465 C-120.35 465.66 -118.7 466.32 -117 467 C-117 467.66 -117 468.32 -117 469 C-115.34467377 470.01866229 -113.67739862 471.01810813 -112 472 C-111.67 472.66 -111.34 473.32 -111 474 C-110.34 474 -109.68 474 -109 474 C-109 474.66 -109 475.32 -109 476 C-107.68 476 -106.36 476 -105 476 C-105 476.66 -105 477.32 -105 478 C-103.68 478 -102.36 478 -101 478 C-101 478.66 -101 479.32 -101 480 C-100.01 480 -99.02 480 -98 480 C-98 480.66 -98 481.32 -98 482 C-96.68 482 -95.36 482 -94 482 C-94 482.66 -94 483.32 -94 484 C-92.5459375 484.680625 -92.5459375 484.680625 -91.0625 485.375 C-88 487 -88 487 -87 489 C-85.68 489 -84.36 489 -83 489 C-83 489.66 -83 490.32 -83 491 C-81.68 491 -80.36 491 -79 491 C-79 491.66 -79 492.32 -79 493 C-77.35 493 -75.7 493 -74 493 C-74 493.66 -74 494.32 -74 495 C-72.68 495 -71.36 495 -70 495 C-70 495.66 -70 496.32 -70 497 C-68.02 497 -66.04 497 -64 497 C-64 497.66 -64 498.32 -64 499 C-62.54293274 499.50367757 -61.08429904 500.00282556 -59.625 500.5 C-58.81289063 500.7784375 -58.00078125 501.056875 -57.1640625 501.34375 C-55.05790758 502.09673305 -55.05790758 502.09673305 -53 502 C-53 502.66 -53 503.32 -53 504 C-51.02 504 -49.04 504 -47 504 C-47 504.66 -47 505.32 -47 506 C-44.36 506 -41.72 506 -39 506 C-39 506.66 -39 507.32 -39 508 C-36.69 508 -34.38 508 -32 508 C-32 508.66 -32 509.32 -32 510 C-28.37 510 -24.74 510 -21 510 C-21 510.66 -21 511.32 -21 512 C-20.21753906 512.06058594 -19.43507813 512.12117188 -18.62890625 512.18359375 C-17.61699219 512.26738281 -16.60507812 512.35117187 -15.5625 512.4375 C-14.55316406 512.51871094 -13.54382813 512.59992188 -12.50390625 512.68359375 C-10 513 -10 513 -9 514 C-6.20446508 514.21187212 -3.42462369 514.37648719 -0.625 514.5 C7.59928571 514.86642857 7.59928571 514.86642857 11 516 C13.55110933 516.09668821 16.07404153 516.13999618 18.625 516.1328125 C19.36830566 516.13376923 20.11161133 516.13472595 20.87744141 516.13571167 C22.44759201 516.13639159 24.01774544 516.13455043 25.58789062 516.13037109 C27.99094965 516.12502015 30.39382178 516.13032242 32.796875 516.13671875 C34.32291708 516.13605794 35.84895904 516.1347767 37.375 516.1328125 C38.45322021 516.13584885 38.45322021 516.13584885 39.55322266 516.13894653 C42.64393507 516.12442286 45.04421077 515.98526308 48 515 C51.42792492 514.74101721 54.84994315 514.55758845 58.28320312 514.39453125 C62.27142972 514.25968513 62.27142972 514.25968513 66 513 C67.87056791 512.7724985 69.74685958 512.59037189 71.625 512.4375 C72.62789063 512.35371094 73.63078125 512.26992188 74.6640625 512.18359375 C75.43492187 512.12300781 76.20578125 512.06242187 77 512 C77 511.34 77 510.68 77 510 C77.63808594 510.01160156 78.27617187 510.02320313 78.93359375 510.03515625 C79.75988281 510.04417969 80.58617187 510.05320312 81.4375 510.0625 C82.26121094 510.07410156 83.08492188 510.08570313 83.93359375 510.09765625 C85.99163938 510.23267348 85.99163938 510.23267348 87 509 C89.32817964 508.63239269 91.6618385 508.29758419 94 508 C94 507.34 94 506.68 94 506 C96.97 506 99.94 506 103 506 C103 505.34 103 504.68 103 504 C104.98 504 106.96 504 109 504 C109.33 503.34 109.66 502.68 110 502 C112.28515625 501.1484375 112.28515625 501.1484375 115.0625 500.375 C115.98160156 500.11460937 116.90070313 499.85421875 117.84765625 499.5859375 C118.91306641 499.29589844 118.91306641 499.29589844 120 499 C120 498.34 120 497.68 120 497 C122.60416667 496.47916667 125.20833333 495.95833333 127.8125 495.4375 C128.534375 495.293125 129.25625 495.14875 130 495 C130 494.34 130 493.68 130 493 C131.65 493 133.3 493 135 493 C135 492.34 135 491.68 135 491 C136.32 491 137.64 491 139 491 C139 490.34 139 489.68 139 489 C140.32 489 141.64 489 143 489 C143 488.01 143 487.02 143 486 C143.78375 485.855625 144.5675 485.71125 145.375 485.5625 C147.96421018 485.12201075 147.96421018 485.12201075 150 484 C150 483.34 150 482.68 150 482 C151.32 482 152.64 482 154 482 C154 481.34 154 480.68 154 480 C155.32 480 156.64 480 158 480 C158 479.34 158 478.68 158 478 C158.99 478 159.98 478 161 478 C161 477.34 161 476.68 161 476 C162.32 476 163.64 476 165 476 C165 475.34 165 474.68 165 474 C165.66 474 166.32 474 167 474 C167 473.34 167 472.68 167 472 C168.32 471.67 169.64 471.34 171 471 C171 470.34 171 469.68 171 469 C171.66 469 172.32 469 173 469 C173 468.34 173 467.68 173 467 C175.31 466.34 177.62 465.68 180 465 C180 464.34 180 463.68 180 463 C180.66 463 181.32 463 182 463 C182 462.34 182 461.68 182 461 C182.66 461 183.32 461 184 461 C184 460.34 184 459.68 184 459 C184.66 459 185.32 459 186 459 C186 458.34 186 457.68 186 457 C186.66 457 187.32 457 188 457 C188 456.34 188 455.68 188 455 C189.175625 454.5359375 189.175625 454.5359375 190.375 454.0625 C192.92330128 453.07124962 192.92330128 453.07124962 195 452 C195 451.34 195 450.68 195 450 C195.66 450 196.32 450 197 450 C197 449.34 197 448.68 197 448 C197.66 448 198.32 448 199 448 C199 447.34 199 446.68 199 446 C199.66 446 200.32 446 201 446 C201 445.34 201 444.68 201 444 C201.66 444 202.32 444 203 444 C203 443.01 203 442.02 203 441 C203.66 441 204.32 441 205 441 C207.1385485 438.8614515 207.42655063 437.86724686 208 435 C208.66 435 209.32 435 210 435 C210 434.34 210 433.68 210 433 C210.66 433 211.32 433 212 433 C212 432.34 212 431.68 212 431 C212.66 431 213.32 431 214 431 C214 430.34 214 429.68 214 429 C214.66 429 215.32 429 216 429 C216 428.01 216 427.02 216 426 C216.66 426 217.32 426 218 426 C220.2773501 423.18490007 220.2773501 423.18490007 220 420 C220.66 420 221.32 420 222 420 C222 419.34 222 418.68 222 418 C222.99 418 223.98 418 225 418 C225 416.68 225 415.36 225 414 C225.66 414 226.32 414 227 414 C227 413.01 227 412.02 227 411 C227.66 411 228.32 411 229 411 C229 410.01 229 409.02 229 408 C229.66 408 230.32 408 231 408 C231 407.01 231 406.02 231 405 C231.66 405 232.32 405 233 405 C233 403.68 233 402.36 233 401 C233.66 401 234.32 401 235 401 C235.680625 399.5459375 235.680625 399.5459375 236.375 398.0625 C238 395 238 395 240 394 C240 392.68 240 391.36 240 390 C240.66 390 241.32 390 242 390 C242 388.68 242 387.36 242 386 C242.66 386 243.32 386 244 386 C245.49821059 382.62902617 246 380.79557881 246 377 C246.66 377 247.32 377 248 377 C248 375.68 248 374.36 248 373 C248.66 373 249.32 373 250 373 C250.29003906 371.82630859 250.29003906 371.82630859 250.5859375 370.62890625 C250.97652344 369.11103516 250.97652344 369.11103516 251.375 367.5625 C251.63023437 366.55316406 251.88546875 365.54382813 252.1484375 364.50390625 C253 362 253 362 255 361 C256.9022844 356.56133639 257.19188324 352.79708091 257 348 C257.66 348 258.32 348 259 348 C259 345.69 259 343.38 259 341 C259.66 341 260.32 341 261 341 C261.06058594 340.28972656 261.12117188 339.57945312 261.18359375 338.84765625 C261.30927734 337.46900391 261.30927734 337.46900391 261.4375 336.0625 C261.51871094 335.14597656 261.59992188 334.22945313 261.68359375 333.28515625 C262 331 262 331 263 330 C263.20839015 328.35892758 263.36751725 326.71143707 263.5 325.0625 C263.89022298 320.21955403 263.89022298 320.21955403 265 318 C265.20833619 315.20482283 265.37446619 312.4239391 265.5 309.625 C265.56925844 308.09618406 265.6420625 306.5675238 265.71875 305.0390625 C265.74904297 304.36053223 265.77933594 303.68200195 265.81054688 302.98291016 C266 301 266 301 266.50927734 299.11645508 C267.13796389 296.40497067 267.12978398 293.88065192 267.1328125 291.09765625 C267.13474609 289.39125977 267.13474609 289.39125977 267.13671875 287.65039062 C267.13285156 286.46638672 267.12898438 285.28238281 267.125 284.0625 C267.12886719 282.88236328 267.13273437 281.70222656 267.13671875 280.48632812 C267.13542969 279.34744141 267.13414062 278.20855469 267.1328125 277.03515625 C267.13168457 275.9975415 267.13055664 274.95992676 267.12939453 273.89086914 C267.00651099 271.14546542 266.57973388 268.67967116 266 266 C265.75332849 262.75558444 265.56179928 259.51300824 265.39453125 256.26367188 C265.22611563 252.50709067 265.22611563 252.50709067 264 249 C263.68954474 246.40856095 263.49026088 243.81628268 263.28125 241.21484375 C263.2334259 239.02929332 263.2334259 239.02929332 262 238 C261.68076508 235.9427083 261.48838648 233.88386479 261.28125 231.8125 C261.18001957 229.9832467 261.18001957 229.9832467 260 229 C259.63239269 226.67182036 259.29758419 224.3381615 259 222 C258.34 222 257.68 222 257 222 C257 219.69 257 217.38 257 215 C256.34 215 255.68 215 255 215 C255 213.02 255 211.04 255 209 C254.34 209 253.68 209 253 209 C252.67 206.69 252.34 204.38 252 202 C251.34 202 250.68 202 250 202 C249.855625 201.0925 249.71125 200.185 249.5625 199.25 C249.13590527 196.78523044 248.64925779 194.41152893 248 192 C247.34 192 246.68 192 246 192 C246 190.35 246 188.7 246 187 C245.34 187 244.68 187 244 187 C244 185.68 244 184.36 244 183 C243.34 183 242.68 183 242 183 C242 181.68 242 180.36 242 179 C241.34 179 240.68 179 240 179 C240 177.68 240 176.36 240 175 C238.62514468 173.45833358 238.62514468 173.45833358 237 172 C235.8125 169.8125 235.8125 169.8125 235 168 C234.34 168 233.68 168 233 168 C233 166.68 233 165.36 233 164 C232.34 164 231.68 164 231 164 C230.34 161.69 229.68 159.38 229 157 C228.34 157 227.68 157 227 157 C227 156.34 227 155.68 227 155 C226.34 155 225.68 155 225 155 C225 153.68 225 152.36 225 151 C224.01 151 223.02 151 222 151 C221.34 149.35 220.68 147.7 220 146 C219.34 146 218.68 146 218 146 C217.34 144.02 216.68 142.04 216 140 C215.34 140 214.68 140 214 140 C214 139.34 214 138.68 214 138 C213.34 138 212.68 138 212 138 C212 137.34 212 136.68 212 136 C211.34 136 210.68 136 210 136 C210 135.34 210 134.68 210 134 C209.34 134 208.68 134 208 134 C208 133.01 208 132.02 208 131 C207.34 131 206.68 131 206 131 C206 130.34 206 129.68 206 129 C205.34 129 204.68 129 204 129 C204 128.34 204 127.68 204 127 C203.34 127 202.68 127 202 127 C201.5978125 126.1028125 201.5978125 126.1028125 201.1875 125.1875 C200.00082594 123.00152146 198.90400887 121.58667406 197 120 C196.34 120 195.68 120 195 120 C195 119.34 195 118.68 195 118 C194.34 118 193.68 118 193 118 C193 117.34 193 116.68 193 116 C191.35 115.34 189.7 114.68 188 114 C188 113.34 188 112.68 188 112 C187.34 112 186.68 112 186 112 C186 111.34 186 110.68 186 110 C185.34 110 184.68 110 184 110 C184 109.34 184 108.68 184 108 C183.34 108 182.68 108 182 108 C182 107.34 182 106.68 182 106 C180.88625 105.34 179.7725 104.68 178.625 104 C177.99851562 103.62875 177.37203125 103.2575 176.7265625 102.875 C175.02527333 101.84931652 175.02527333 101.84931652 173 102 C173 101.34 173 100.68 173 100 C171.72943475 98.31267956 171.72943475 98.31267956 170 97 C169.01 97 168.02 97 167 97 C167 96.34 167 95.68 167 95 C166.34 95 165.68 95 165 95 C165 94.34 165 93.68 165 93 C163.68 93 162.36 93 161 93 C161 92.34 161 91.68 161 91 C158.35261084 89.5393715 157.10551666 89 154 89 C154 88.34 154 87.68 154 87 C150.19572508 84.7986134 150.19572508 84.7986134 146 84 C146 83.34 146 82.68 146 82 C145.01 82 144.02 82 143 82 C143 81.34 143 80.68 143 80 C141.68 80 140.36 80 139 80 C139 79.34 139 78.68 139 78 C137.3603125 77.4121875 137.3603125 77.4121875 135.6875 76.8125 C132.15883678 75.50256996 128.77835551 73.98123482 125.375 72.375 C121.57248809 70.61389226 118.22574714 69.34262815 114 69 C114 68.34 114 67.68 114 67 C112.35 67 110.7 67 109 67 C109 66.34 109 65.68 109 65 C107.02 65 105.04 65 103 65 C103 64.34 103 63.68 103 63 C100.36 63 97.72 63 95 63 C95 62.34 95 61.68 95 61 C92.69 61 90.38 61 88 61 C88 60.34 88 59.68 88 59 C87.37351562 58.93941406 86.74703125 58.87882812 86.1015625 58.81640625 C85.28429687 58.73261719 84.46703125 58.64882813 83.625 58.5625 C82.81289063 58.48128906 82.00078125 58.40007813 81.1640625 58.31640625 C79 58 79 58 77 57 C75.50420396 56.79907217 74.00303276 56.63663934 72.5 56.5 C68.22222222 56.11111111 68.22222222 56.11111111 66 55 C64.55487563 54.78217533 63.10263322 54.61026332 61.6484375 54.46484375 C60.79765625 54.37783203 59.946875 54.29082031 59.0703125 54.20117188 C57.73613281 54.0706543 57.73613281 54.0706543 56.375 53.9375 C55.4778125 53.84662109 54.580625 53.75574219 53.65625 53.66210938 C51.43782728 53.43790708 49.2191024 53.21735434 47 53 C47 52.67 47 52.34 47 52 C41.60653012 51.97535151 36.21309275 51.95716469 30.81958008 51.94506836 C28.98331125 51.94002769 27.14704646 51.93319523 25.31079102 51.92456055 C22.67723599 51.91248328 20.04373384 51.90676919 17.41015625 51.90234375 C16.58411392 51.89718246 15.75807159 51.89202118 14.90699768 51.88670349 C11.14897868 51.51910274 11.14897868 51.51910274 8 53 Z " fill="#FFFFFF" transform="translate(409,5)"/>
<path d="M0 0 C12.87093863 10.05469347 19.23954329 27.14336876 21.65625 42.8984375 C25.29615709 75.74032644 20.32390205 109.10870509 -0.3125 135.8125 C-7.29550426 144.02849652 -15.59247504 149.92038203 -26.43359375 151.3125 C-35.02448405 151.7413744 -41.99295472 148.94321598 -48.625 143.5625 C-60.24139933 132.43866884 -65.71993004 116.61582801 -68 101 C-68.11085938 100.25105469 -68.22171875 99.50210938 -68.3359375 98.73046875 C-71.90239697 69.66864357 -66.18004803 35.62338923 -48 12 C-35.10937027 -3.19909433 -18.11126161 -11.89573833 0 0 Z " fill="#FFFFFF" transform="translate(479,173)"/>
<path d="M0 0 C5.84292853 4.97176901 9.88983594 10.22791214 13.28125 17.08203125 C13.72082031 17.93925781 14.16039062 18.79648438 14.61328125 19.6796875 C26.83568764 45.93385952 25.05278225 79.20318358 15.79296875 106.12890625 C9.26216414 123.86864092 -0.45737573 140.62098933 -17.984375 148.953125 C-25.95250977 152.24282635 -32.99770121 151.68154107 -40.91796875 148.515625 C-53.03849831 142.31167194 -59.68424266 130.50695725 -63.94726562 118.05712891 C-70.65577576 96.91316155 -70.81256157 73.63045856 -65.71875 52.08203125 C-65.46931641 51.0161377 -65.46931641 51.0161377 -65.21484375 49.92871094 C-60.64169249 31.13644679 -51.7331014 11.73603945 -35.71875 0.08203125 C-23.79834283 -7.0524214 -11.83068812 -8.34607452 0 0 Z " fill="#FFFFFF" transform="translate(592.71875,173.91796875)"/>
<path d="" fill="#FFFFFF" transform="translate(0,0)"/>
<path d="" fill="#FFFFFF" transform="translate(0,0)"/>
</svg>
